<?xml version="1.0" encoding="UTF-8" standalone="no"?>
<!-- Created with Inkscape (http://www.inkscape.org/) -->

<svg
   version="1.1"
   id="svg178"
   width="900"
   height="792"
   viewBox="0 0 900 792"
   sodipodi:docname="logotipo.svg"
   inkscape:version="1.2.2 (732a01da63, 2022-12-09)"
   xmlns:inkscape="http://www.inkscape.org/namespaces/inkscape"
   xmlns:sodipodi="http://sodipodi.sourceforge.net/DTD/sodipodi-0.dtd"
   xmlns:xlink="http://www.w3.org/1999/xlink"
   xmlns="http://www.w3.org/2000/svg"
   xmlns:svg="http://www.w3.org/2000/svg">
  <defs
     id="defs182">
    <linearGradient
       inkscape:collect="always"
       id="linearGradient8153">
      <stop
         style="stop-color:#000000;stop-opacity:1;"
         offset="0"
         id="stop8149" />
      <stop
         style="stop-color:#000000;stop-opacity:0;"
         offset="1"
         id="stop8151" />
    </linearGradient>
    <linearGradient
       id="linearGradient8105"
       inkscape:swatch="solid">
      <stop
         style="stop-color:#000000;stop-opacity:1;"
         offset="0"
         id="stop8103" />
    </linearGradient>
    <marker
       markerWidth="1.05"
       markerHeight="0.99999994"
       refX="0"
       refY="0"
       orient="auto-start-reverse"
       id="CapRibbon1"
       viewBox="0 0 1.05 1"
       inkscape:stockid="pin"
       style="overflow:visible"
       preserveAspectRatio="xMidYMid"
       inkscape:isstock="true"
       inkscape:collect="always">
      <path
         id="path56643"
         style="fill:context-stroke;stroke-linecap:butt"
         d="M 0,-1 H 2 L 1,0 2,1 H 0 L -0.1,0 Z"
         sodipodi:nodetypes="sssssscsss"
         transform="scale(0.5)" />
    </marker>
    <rect
       x="87.272982"
       y="53.588673"
       width="736.46148"
       height="143.92386"
       id="rect2065" />
    <filter
       inkscape:collect="always"
       style="color-interpolation-filters:sRGB"
       id="filter4345"
       x="-0.068182696"
       y="-0.28413828"
       width="1.135753"
       height="1.5657247">
      <feGaussianBlur
         inkscape:collect="always"
         stdDeviation="22.780543"
         id="feGaussianBlur4347" />
    </filter>
    <linearGradient
       inkscape:collect="always"
       xlink:href="#linearGradient8153"
       id="linearGradient8169"
       x1="122.23923"
       y1="90.488419"
       x2="465.2272"
       y2="90.488419"
       gradientUnits="userSpaceOnUse" />
  </defs>
  <sodipodi:namedview
     id="namedview180"
     pagecolor="#ffffff"
     bordercolor="#000000"
     borderopacity="0.25"
     inkscape:showpageshadow="2"
     inkscape:pageopacity="0.0"
     inkscape:pagecheckerboard="0"
     inkscape:deskcolor="#d1d1d1"
     showgrid="false"
     inkscape:zoom="0.65312309"
     inkscape:cx="218.18245"
     inkscape:cy="254.92897"
     inkscape:window-width="1920"
     inkscape:window-height="1001"
     inkscape:window-x="2391"
     inkscape:window-y="-9"
     inkscape:window-maximized="1"
     inkscape:current-layer="svg178"
     showguides="false" />
  <path
     style="display:inline;fill:#000000"
     d="m 431,773.40004 c -2.475,-0.21595 -10.575,-0.85918 -18,-1.42941 C 303.88161,763.59059 204.51627,707.76939 139.30605,618.21554 100.72934,565.23777 77.783143,504.67615 69.887497,435 c -1.853433,-16.35585 -1.562726,-58.67666 0.525487,-76.5 5.627481,-48.03173 17.933962,-89.09597 38.959506,-130 18.51009,-36.01037 40.11718,-65.10673 72.07118,-97.0519 C 210.64571,102.25411 236.44437,84.257504 279.5,63.046025 304.38644,50.785649 320.63309,44.225445 338.88417,39.067402 378.81622,27.781971 416.00855,23.509526 460,25.154298 c 82.0108,3.066257 162.81515,35.132257 226.5,89.883142 12.32409,10.59521 37.35497,36.37587 46.86217,48.26586 45.78419,57.25913 72.65382,122.18254 81.19927,196.1967 2.32706,20.15515 2.34402,58.48564 0.0349,78.81519 -5.2169,45.92944 -17.72729,88.64858 -38.1249,130.18481 -17.53074,35.69835 -37.38154,62.64652 -70.3786,95.54147 -30.13772,30.04446 -59.75087,51.31226 -97.97489,70.36435 -8.03986,4.00733 -17.87749,8.55032 -21.86139,10.09554 -5.369,2.08244 -6.9844,3.12162 -6.24238,4.0157 0.754,0.90852 -1.10231,1.62395 -7.52137,2.89876 -4.68734,0.93089 -15.87316,4.10541 -24.85737,7.05449 -32.10447,10.53831 -55.58095,14.48413 -89.13542,14.98147 -12.65,0.18749 -25.025,0.16421 -27.5,-0.0517 z m 57.5,-15.88701 c 16.1088,-2.1478 29.65454,-5.00991 43.45702,-9.18212 15.4587,-4.67286 15.18919,-4.44622 9.74282,-8.19342 L 537.13965,737 h -83.98984 -83.98984 l -5.08016,5.69982 c -2.7941,3.1349 -4.74259,6.00687 -4.32999,6.38214 1.01202,0.92049 19.10815,4.41626 33.25018,6.42321 31.3864,4.45417 70.91854,5.28532 95.5,2.00786 z m -138.78631,-20.3331 7.09552,-7.82007 -30.48604,-38.42993 c -16.76733,-21.13646 -31.4619,-39.3951 -32.65461,-40.57474 -1.68187,-1.66345 -11.48246,-4.43005 -43.66856,-12.32716 -22.825,-5.60028 -48.86962,-11.99426 -57.87693,-14.20883 -12.00648,-2.95196 -16.5707,-3.71296 -17.10303,-2.85162 -0.39936,0.64618 -1.30948,4.2666 -2.02249,8.04539 l -1.29637,6.87052 5.03896,5.80826 c 12.66406,14.59745 36.60219,35.80356 56.58135,50.12381 20.57997,14.75089 48.15455,30.14452 71.18526,39.73948 7.62832,3.17808 35.82852,13.2363 37.55233,13.39386 0.30749,0.0281 3.75207,-3.46793 7.65461,-7.76897 z m 225.02732,-3.41035 c 14.19159,-5.58012 39.27796,-17.93681 52.30997,-25.76611 25.3954,-15.25691 47.92806,-32.95725 70.07485,-55.04668 l 15.62582,-15.58536 -1.61823,-7.18572 c -1.12363,-4.98947 -2.07901,-7.19429 -3.12582,-7.21378 -6.25423,-0.11645 -117.75089,11.5625 -118.65784,12.42905 -1.45795,1.39303 -40.51462,90.62498 -40.13287,91.69071 0.22573,0.63015 13.61148,10.62989 14.52412,10.85014 0.13255,0.032 5.08255,-1.84552 11,-4.17225 z m -19.93139,-56.53281 c 11.03929,-25.16977 20.36116,-46.51823 20.71526,-47.44102 0.43061,-1.12214 -7.0222,-15.11031 -22.50349,-42.23677 L 529.87406,547 h -87.32703 -87.32702 l -16.76063,31.75 c -9.21835,17.4625 -20.26602,38.307 -24.55038,46.32112 -4.28436,8.01411 -7.92908,15.02706 -8.09937,15.58434 -0.29338,0.96005 6.27336,9.43264 46.96424,60.59454 L 370.07242,723 h 82.33288 82.33289 z m -236.65889,-90.7887 c 13.66154,-25.82144 24.84143,-47.37583 24.84421,-47.89866 0.003,-0.52282 -4.52925,-14.92282 -10.07119,-32 C 327.38181,489.47224 317.44203,458.85 310.83536,438.5 c -6.60668,-20.35 -14.04827,-43.3 -16.53688,-51 -2.48861,-7.7 -4.81133,-14.31402 -5.16161,-14.69781 -0.35028,-0.3838 -18.41187,-2.99276 -40.13687,-5.79769 -21.725,-2.80493 -45.45775,-5.89549 -52.73943,-6.86789 l -13.23944,-1.76801 -36.26056,50.53039 c -19.94332,27.79172 -36.1198,50.96858 -35.94776,51.50414 0.17205,0.53556 14.57205,33.12222 32,72.41479 23.13585,52.16145 32.22692,71.66073 33.68719,72.25505 3.00812,1.22429 114.85955,28.74612 115.90579,28.51943 0.49819,-0.10794 12.08341,-21.32289 25.74494,-47.14433 z m 426.2724,8.24128 c 20.55698,-31.60155 34.58864,-63.68167 44.92552,-102.71178 4.11315,-15.53046 9.99647,-43.96578 9.25087,-44.71138 -0.27792,-0.27792 -1.92712,0.33599 -3.6649,1.36425 -3.39078,2.00636 -1.21137,-2.85279 -41.4293,92.36956 -7.31735,17.325 -17.38956,41.16387 -22.38269,52.97526 -8.5745,20.28327 -9.02087,21.68893 -8.04185,25.32472 l 1.03655,3.84946 6.51353,-8.63537 c 3.58244,-4.74945 9.78896,-13.67058 13.79227,-19.82472 z M 161.4945,615.02046 c 0.51833,-3.07854 -3.55314,-12.86557 -32.43423,-77.96564 -29.31678,-66.08215 -33.505091,-74.93236 -37.283026,-78.78179 -2.340829,-2.38513 -4.406206,-3.88614 -4.589727,-3.33558 -0.183521,0.55056 0.626023,5.85237 1.798987,11.78179 10.773379,54.46023 31.564896,101.90255 63.807716,145.59713 6.84786,9.28003 7.55604,9.50014 8.70028,2.70409 z M 647.5,614.49758 c 30.8,-3.02879 57.3841,-5.73547 59.07577,-6.01486 3.04948,-0.50363 3.36913,-1.20153 37.39543,-81.64765 30.6183,-72.38881 34.18047,-81.36256 33.02907,-83.20625 -0.70983,-1.13661 -17.64575,-22.60312 -37.63538,-47.70336 l -36.34479,-45.63679 -54.16145,10.8404 c -29.7888,5.96222 -54.28044,10.95977 -54.42587,11.10566 -0.3094,0.31038 -3.63531,10.76735 -43.97625,138.26527 -3.13241,9.9 -6.37447,20.34562 -7.20458,23.21248 l -1.5093,5.21248 19.8174,34.78752 c 27.21863,47.77969 26.30819,46.28722 28.23785,46.28975 0.93616,10e-4 26.9021,-2.47587 57.7021,-5.50465 z M 553.82154,451.25 c 13.85621,-44.4125 25.18982,-81.27332 25.18579,-81.91293 -0.004,-0.63961 -31.01568,-23.711 -68.91476,-51.26976 l -68.90744,-50.10684 -68.84256,50.0985 c -37.86342,27.55418 -68.79105,50.62557 -68.72807,51.26977 0.063,0.64419 10.79128,34.02126 23.84067,74.17126 13.04939,40.15 24.82994,76.4875 26.179,80.75 l 2.45284,7.75 h 86.2707 86.27071 z m -416.88425,-53.26177 35.18779,-49.01177 -9.06546,-57.73823 c -4.986,-31.75603 -9.81783,-62.52221 -10.73741,-68.3693 l -1.67194,-10.63106 -8.07514,0.49125 c -6.68615,0.40676 -8.37489,0.85932 -9.81784,2.63107 -3.22246,3.95676 -20.30619,39.01417 -25.60281,52.53939 C 95.004868,298.92426 87.729176,329.83075 83.942967,366.5 82.670518,378.82361 82.5056,423.04868 83.716777,427.15614 84.480345,429.74563 99.508055,447 100.9998,447 c 0.41233,0 16.5842,-22.0553 35.93749,-49.01177 z m 658.8046,34.93029 c 4.77467,-1.98426 5.03778,-2.29437 5.63335,-6.63957 1.20734,-8.8085 0.63488,-49.23945 -0.90477,-63.90069 C 795.77516,317.6673 782.93854,274.32537 762.44856,234 c -3.4933,-6.875 -6.95154,-13.31728 -7.68498,-14.31618 -1.0084,-1.37338 -3.98762,-2.16476 -12.21934,-3.24589 -5.98719,-0.78634 -10.96264,-1.31905 -11.05657,-1.18382 -0.23403,0.337 -17.80906,122.97781 -17.81569,124.32026 -0.008,1.58158 74.63209,95.32008 75.94467,95.37711 0.61415,0.0267 3.37051,-0.88815 6.12524,-2.03296 z M 363.52127,306.75806 434.0163,255.51612 433.75815,199.0739 433.5,142.63168 l -19,-8.61781 C 404.05,129.27407 376.87885,116.91033 354.11966,106.53888 317.76216,89.970629 312.49651,87.833341 310.73893,88.930966 308.4179,90.380475 170.76429,202.10256 166.94378,205.63764 l -2.55622,2.36524 4.36522,27.74856 c 2.40088,15.26171 7.21373,45.88611 10.69523,68.05423 3.4815,22.16812 6.49245,40.42208 6.69099,40.56435 0.19855,0.14227 20.836,2.85826 45.861,6.03554 25.025,3.17728 47.75,6.13321 50.5,6.56875 2.75,0.43554 6.2434,0.84449 7.76312,0.90879 2.15492,0.0912 18.27998,-11.16211 73.25815,-51.12504 z M 660,344.05484 c 35.32447,-6.83563 39.53105,-7.85036 39.79375,-9.59924 2.5495,-16.9732 17.93775,-123.98554 17.84038,-124.06485 C 717.56036,210.33067 689.6,186.91521 655.5,158.3564 580.43602,95.490175 571.33731,88 570.03434,88 569.47624,88 551.5777,95.940074 530.25981,105.64461 508.94191,115.34915 481.825,127.69312 470,133.07568 l -21.5,9.78645 -0.089,55.71657 c -0.0795,49.75057 0.0811,55.86109 1.5,57.06619 0.87395,0.74229 32.75613,23.99978 70.84929,51.68332 l 69.2603,50.3337 15.2397,-2.98172 C 613.64213,353.04024 638.275,348.25883 660,344.05484 Z M 741.4534,199.25 c -0.97715,-1.5125 -5.10985,-7.11499 -9.18379,-12.44997 C 698.20945,142.19693 655.81384,105.6116 607.80596,79.394033 598.03744,74.05935 580.96676,66.028939 576.34688,64.595011 l -2.15312,-0.668289 1.69028,5.462991 c 1.53231,4.952441 2.52791,6.14659 10.65312,12.777665 4.92956,4.02307 31.23784,25.970162 58.46284,48.771312 58.54619,49.03289 78.93244,66.07311 81.25479,67.91826 1.55549,1.23588 8.66541,2.7047 14.61022,3.01829 2.3468,0.1238 2.35133,0.10358 0.58839,-2.62524 z M 229.65255,136.03847 c 67.67905,-55.022026 75.79882,-61.925674 77.49879,-65.891535 1.04441,-2.436503 1.70597,-4.622958 1.47014,-4.85879 -0.23583,-0.235832 -8.23464,3.35453 -17.77513,7.978582 C 238.41477,98.679083 203.84329,124.74945 170.18421,164.25811 161.70184,174.21462 144,197.10351 144,198.1149 c 0,0.24234 2.26185,0.20313 5.02634,-0.0871 4.92543,-0.51716 6.54409,-1.76167 80.62621,-61.98929 z M 501.66201,102.75 c 32.76388,-14.9875 59.79211,-27.814142 60.06273,-28.503649 0.27062,-0.689507 -0.57033,-4.696939 -1.86879,-8.905403 l -2.36083,-7.651754 -5.49756,-1.908646 C 534.56306,49.727625 503.1107,43.197367 478.79686,40.582339 462.76928,38.858524 422.06098,38.884502 405.5,40.629112 c -22.3838,2.358013 -48.73799,7.701634 -69.14921,14.02081 l -8.1492,2.522941 -3.74659,8.934443 c -2.06062,4.913943 -3.50661,9.174417 -3.21331,9.467718 0.95805,0.958047 118.22231,54.261686 119.55397,54.344456 0.71261,0.0443 28.10247,-12.18198 60.86635,-27.16948 z"
     id="path204"
     inkscape:label="path204" />
  <path
     style="opacity:1;fill:#000000;fill-opacity:1;stroke:#000000;stroke-width:2.63962;stroke-linejoin:miter;stroke-dasharray:none;stroke-opacity:1;paint-order:markers stroke fill"
     d="m 576.83654,598.39764 c -6.73256,-11.64408 -17.20442,-29.90491 -23.27081,-40.57959 l -11.02979,-19.40853 25.99649,-82.1297 c 14.29808,-45.17133 26.29017,-82.42335 26.64908,-82.78227 1.684,-1.684 107.2688,-22.27059 108.33093,-21.12203 0.66615,0.72035 17.20842,21.53589 36.76063,46.25677 32.09254,40.57628 35.46243,45.38221 34.65445,49.42212 -1.04089,5.20451 -10.72164,28.7559 -42.60208,103.64276 -17.56031,41.249 -23.80018,54.4002 -26.28717,55.40306 -1.79361,0.72325 -25.65351,3.4397 -53.02201,6.03656 -27.3685,2.59687 -52.95091,5.10641 -56.8498,5.57676 l -7.0889,0.85519 z"
     id="path5831" />
  <path
     style="opacity:1;fill:#000000;fill-opacity:1;stroke:#000000;stroke-width:2.63962;stroke-linejoin:miter;stroke-dasharray:none;stroke-opacity:1;paint-order:markers stroke fill"
     d="M 413.39834,771.39323 C 281.29477,759.86495 166.64484,682.19004 108.72442,564.97773 81.942662,510.78006 69.690658,459.04411 69.673572,400.07958 c -0.01336,-46.11045 7.333937,-89.40513 21.709557,-127.92568 2.964594,-7.94385 3.075353,-8.0383 9.426601,-8.0383 h 6.42677 l -7.19166,21.81825 c -12.05988,36.58763 -18.130725,75.49326 -18.130725,116.1926 0,24.37093 0.812992,27.15496 11.339666,38.83177 6.883079,7.63514 6.909429,7.64737 9.887119,4.59332 7.3207,-7.50843 69.07086,-95.26739 69.08861,-98.18831 0.0109,-1.79289 -2.73619,-20.56639 -6.10462,-41.71888 -3.36843,-21.15249 -6.12442,-39.14975 -6.12442,-39.99391 0,-0.84416 2.68129,-1.53484 5.95843,-1.53484 7.13535,0 5.84245,-4.19227 13.22147,42.87094 3.10279,19.78953 6.12517,36.50307 6.7164,37.1412 0.59122,0.63813 24.41244,4.21344 52.93602,7.94514 39.64321,5.18645 52.60795,6.39237 55.03132,5.11873 4.28747,-2.25333 34.16836,-23.47715 86.54637,-61.47219 l 43.56739,-31.60382 h 17.99644 17.99644 l 64.86889,47.26007 64.86889,47.26007 52.70656,-10.37273 c 28.98861,-5.705 53.87923,-10.84162 55.31251,-11.41471 1.60616,-0.64222 2.97005,-3.48651 3.55495,-7.41357 0.52196,-3.50437 2.80914,-19.46253 5.08261,-35.46258 l 4.13359,-29.09099 6.47417,-0.47082 c 3.5608,-0.25894 6.47417,-0.18116 6.47417,0.17285 0,0.35402 -2.41636,17.40226 -5.36968,37.88499 l -5.36968,37.24133 3.79581,5.45676 c 3.4646,4.98063 56.23234,71.25339 67.68008,85.00166 5.16594,6.2041 8.49676,6.59902 15.05316,1.78479 2.9024,-2.13116 3.05322,-3.91261 2.89004,-34.13357 -0.24337,-45.07132 -5.27622,-76.24043 -18.71987,-115.93457 l -6.01801,-17.76898 h 6.55804 6.55805 l 3.92399,11.10051 c 25.97936,73.49263 27.87046,155.51147 5.33465,231.36988 -12.82096,43.15697 -35.28119,87.43184 -60.52602,119.31224 -13.38186,16.89927 -46.93684,50.62452 -64.02037,64.34522 -24.60115,19.75851 -52.58036,36.88953 -80.38301,49.21664 -7.15791,3.17367 -13.71323,6.63512 -14.56737,7.69212 -0.85415,1.05699 -3.95463,2.44096 -6.88998,3.07548 -2.93534,0.63452 -15.22379,4.1562 -27.30765,7.82598 -39.03895,11.85582 -57.41867,14.50127 -98.18091,14.1314 -15.60107,-0.14157 -31.12159,-0.4979 -34.49002,-0.79184 z m 71.23654,-12.76797 c 25.60396,-3.09503 61.20403,-11.95733 61.20403,-15.23616 0,-0.74813 -2.0011,-2.78514 -4.44689,-4.52671 -4.36613,-3.10895 -5.97669,-3.16646 -88.67543,-3.16646 h -84.22853 l -4.92912,6.22351 c -3.00035,3.78824 -4.3779,6.7747 -3.52047,7.63213 1.82081,1.8208 33.97866,7.27864 52.6442,8.93478 21.13624,1.87534 57.01439,1.94462 71.95221,0.13887 z m -134.06712,-21.34211 7.48514,-7.59941 -7.49577,-9.62552 c -25.86815,-33.21798 -56.23779,-70.22034 -58.7264,-71.5522 -3.75385,-2.00901 -104.83319,-27.19487 -111.91712,-27.88632 -5.32003,-0.51926 -5.36172,-0.47489 -7.42097,7.89888 l -2.07089,8.42108 19.68381,19.13881 c 29.49481,28.67818 55.66687,47.45669 91.27275,65.48845 17.77929,9.00391 53.38084,23.13054 58.58454,23.24626 1.77605,0.0395 6.34371,-3.20377 10.60491,-7.53003 z m 228.18991,-4.22892 c 44.91377,-18.59617 86.85926,-46.92159 121.61129,-82.12301 l 12.90282,-13.06968 -1.41954,-7.35092 -1.41954,-7.35091 -10.71774,0.25562 c -13.78117,0.32867 -104.63602,9.77598 -108.83294,11.31672 -2.37159,0.87063 -7.98346,12.07267 -21.93951,43.79412 -10.31403,23.44334 -18.87047,44.28589 -19.01431,46.31678 -0.1921,2.71237 1.51342,5.06154 6.42526,8.85003 7.34167,5.66266 7.17339,5.66746 22.40421,-0.63875 z m -22.37237,-57.0714 20.50886,-46.6987 -6.5271,-12.24884 c -3.58992,-6.73686 -14.06254,-25.51203 -23.27249,-41.72261 l -16.74539,-29.47377 h -87.76584 -87.76585 l -24.68102,46.58779 c -13.57457,25.62327 -24.68103,47.41639 -24.68103,48.42916 0,1.72436 7.77141,11.91169 47.53194,62.3083 l 16.00891,20.29135 83.44008,-0.38699 83.44007,-0.38699 z M 307.31408,608.53088 c 7.48407,-13.84895 18.84393,-35.22238 25.24413,-47.49653 l 11.63671,-22.31665 -26.60111,-82.26053 c -14.63061,-45.24329 -26.96584,-82.85067 -27.41162,-83.57195 -0.72141,-1.16728 -107.2271,-15.94488 -108.05464,-14.99252 -2.27432,2.61735 -69.51474,97.67334 -70.6724,99.90768 -1.30779,2.52409 2.90018,13.15185 23.94596,60.47864 14.04291,31.57904 28.69004,64.06274 32.54918,72.18598 l 7.01662,14.76953 8.97616,2.61769 c 14.92758,4.35326 106.86442,26.59155 108.36523,26.2121 0.7691,-0.19447 7.5217,-11.68451 15.00578,-25.53344 z m 435.20617,-9.86885 c 20.5532,-30.79068 34.32682,-60.46188 44.54233,-95.95338 5.9112,-20.53712 13.29649,-55.01408 12.05125,-56.25932 -2.01286,-2.01286 -6.48182,3.25342 -11.6297,13.7046 -6.12955,12.44412 -59.93478,139.01207 -63.6159,149.6459 -1.33472,3.85567 -1.83195,8.25905 -1.21024,10.71773 l 1.05525,4.17326 3.78232,-4.59332 c 2.08028,-2.52632 8.84138,-12.17228 15.02469,-21.43547 z M 161.53157,615.3439 c 0,-6.13019 -6.01642,-21.00026 -33.44553,-82.66324 -25.88241,-58.18586 -30.555714,-68.06673 -34.865902,-73.71768 -4.153603,-5.44565 -6.712709,-6.39693 -6.712709,-2.49529 0,6.06463 8.46101,39.86065 14.708151,58.74912 7.95695,24.0582 23.9056,57.36181 37.39446,78.08636 10.69167,16.42687 19.37389,27.55989 21.49293,27.55989 0.78573,0 1.4286,-2.48362 1.4286,-5.51916 z m 431.08202,4.1878 c -3.90244,-0.83715 -6.33085,-4.09503 -17.84005,-23.93376 -7.32749,-12.63057 -13.04162,-23.4226 -12.69805,-23.98225 0.34356,-0.55965 -0.009,-1.24864 -0.78248,-1.5311 -1.76381,-0.64372 -16.95812,-26.72856 -18.5823,-31.9012 -0.90133,-2.87052 -1.23482,-3.10533 -1.33351,-0.93894 -0.0724,1.58886 8.39175,17.7803 18.80921,35.98097 28.76232,50.25166 27.00065,47.66654 32.34006,47.45649 l 4.60446,-0.18116 z m 18.68006,-1.25519 c -1.47369,-0.3851 -3.88518,-0.3851 -5.35887,0 -1.47369,0.38512 -0.26794,0.70022 2.67944,0.70022 2.94737,0 4.15312,-0.3151 2.67943,-0.70022 z m 15.31105,-1.5311 c -1.47369,-0.3851 -3.88518,-0.3851 -5.35887,0 -1.47369,0.38512 -0.26794,0.70022 2.67944,0.70022 2.94737,0 4.15312,-0.3151 2.67943,-0.70022 z m 16.86001,-1.52766 c -1.46388,-0.38322 -4.21987,-0.39712 -6.12442,-0.0309 -1.90456,0.36623 -0.70685,0.67978 2.66158,0.69678 3.36843,0.017 4.92671,-0.28266 3.46284,-0.66588 z m 15.31105,-1.53111 c -1.46388,-0.38322 -4.21987,-0.39712 -6.12442,-0.0309 -1.90456,0.36622 -0.70685,0.67978 2.66158,0.69677 3.36843,0.017 4.92671,-0.28266 3.46284,-0.66588 z m 15.31105,-1.5311 c -1.46388,-0.38322 -4.21987,-0.39712 -6.12442,-0.0309 -1.90456,0.36623 -0.70685,0.67978 2.66158,0.69678 3.36843,0.017 4.92671,-0.28266 3.46284,-0.66588 z m 13.76209,-1.53455 c -1.47369,-0.3851 -3.88518,-0.3851 -5.35887,0 -1.47369,0.38512 -0.26794,0.70022 2.67943,0.70022 2.94738,0 4.15313,-0.3151 2.67944,-0.70022 z m 18.21493,-1.39929 c 2.3115,-0.62019 5.10632,-4.81606 9.41972,-14.14182 8.03271,-17.36713 44.10894,-102.34704 54.90989,-129.34383 l 8.46389,-21.15532 -7.37498,-9.46678 c -6.23046,-7.99763 -65.86186,-83.34024 -67.33051,-85.07022 -0.27048,-0.31861 -10.48583,1.36928 -22.70077,3.75088 -12.21494,2.38159 -21.92106,4.61809 -21.56915,4.97 0.52387,0.52387 27.1998,-3.90723 40.06554,-6.65522 2.76456,-0.59048 7.83332,5.02291 31.50114,34.88593 32.67831,41.23209 41.9773,53.65316 43.30941,57.85026 0.52761,1.6623 -0.50831,6.94483 -2.30201,11.73893 -6.28694,16.80333 -47.86679,114.69742 -56.29562,132.54036 -8.69991,18.41676 -8.70213,18.41915 -18.74208,20.00052 -3.36036,0.52929 -3.26687,0.62582 0.76556,0.79051 2.52632,0.1032 6.07231,-0.20921 7.87997,-0.6942 z M 533.76444,518.27902 c 8.79278,-27.6186 44.09095,-141.83643 45.04516,-145.75714 0.94885,-3.8987 -0.48179,-5.23324 -25.55219,-23.83581 C 483.6529,297.0386 441.4914,267.13915 439.75072,268.19114 c -5.08555,3.07347 -124.57336,90.61773 -133.86464,98.07763 l -3.39713,2.72752 19.83074,61.2442 c 10.9069,33.68431 22.71551,70.379 26.24137,81.54377 l 6.41065,20.29956 87.3247,-0.39519 87.3247,-0.39521 z m 14.90371,-1.5311 c 0,-1.26316 -0.92866,0.11483 -2.06368,3.06221 -1.13503,2.94738 -2.06369,6.39236 -2.06369,7.65552 0,1.26317 0.92866,-0.11483 2.06369,-3.06221 1.13502,-2.94737 2.06368,-6.39236 2.06368,-7.65552 z m 10.83675,-34.36533 c -0.0626,-0.88859 -1.78518,3.1693 -3.82776,9.01757 -2.04261,5.84825 -3.66251,11.36023 -3.59985,12.24884 0.0626,0.88859 1.78518,-3.1693 3.82777,-9.01757 2.0426,-5.84825 3.66251,-11.36023 3.59984,-12.24884 z m 9.18663,-29.09099 c -0.0626,-0.8886 -1.78518,3.16929 -3.82776,9.01756 -2.04261,5.84826 -3.66252,11.36023 -3.59985,12.24884 0.0626,0.88859 1.78518,-3.16929 3.82777,-9.01756 2.0426,-5.84826 3.66251,-11.36024 3.59984,-12.24884 z m 10.71643,-33.69959 c -0.0634,-0.8802 -2.13039,4.22496 -4.59331,11.34478 -2.46294,7.11982 -4.42618,13.6653 -4.3628,14.5455 0.0634,0.8802 2.1304,-4.22496 4.59332,-11.34479 2.46293,-7.11982 4.42618,-13.66529 4.36279,-14.54549 z m 16.98239,-45.98697 c 0.71199,0.44004 1.69026,0.15979 2.17391,-0.62279 0.48366,-0.78256 3.67819,-1.89571 7.09894,-2.47364 3.42076,-0.57793 5.88328,-1.38707 5.47227,-1.79809 -0.41101,-0.41101 -4.4451,0.0204 -8.96462,0.95861 l -8.21733,1.70591 -6.4496,19.54217 c -3.54728,10.7482 -6.39519,20.20344 -6.32871,21.01165 0.0665,0.80821 3.22581,-7.66403 7.02074,-18.82721 3.79492,-11.16317 7.4824,-19.93664 8.1944,-19.49661 z m 21.79327,-6.38832 c -1.05263,-0.42475 -2.77513,-0.42475 -3.82776,0 -1.05263,0.42475 -0.19139,0.77227 1.91388,0.77227 2.10527,0 2.96652,-0.34752 1.91388,-0.77227 z m 7.65553,-1.53111 c -1.05264,-0.42474 -2.77513,-0.42474 -3.82777,0 -1.05263,0.42475 -0.19138,0.77227 1.91389,0.77227 2.10526,0 2.96651,-0.34752 1.91388,-0.77227 z m 7.65552,-1.5311 c -1.05263,-0.42475 -2.77513,-0.42475 -3.82776,0 -1.05264,0.42475 -0.19139,0.77227 1.91388,0.77227 2.10527,0 2.96652,-0.34752 1.91388,-0.77227 z m 7.65553,-1.53111 c -1.05264,-0.42474 -2.77513,-0.42474 -3.82777,0 -1.05263,0.42475 -0.19138,0.77227 1.91389,0.77227 2.10526,0 2.96651,-0.34752 1.91388,-0.77227 z m 7.65552,-1.5311 c -1.05263,-0.42475 -2.77513,-0.42475 -3.82776,0 -1.05264,0.42475 -0.19139,0.77227 1.91388,0.77227 2.10527,0 2.96652,-0.34752 1.91388,-0.77227 z m 7.65553,-1.53111 c -1.05264,-0.42474 -2.77513,-0.42474 -3.82777,0 -1.05263,0.42475 -0.19138,0.77227 1.91388,0.77227 2.10527,0 2.96652,-0.34752 1.91389,-0.77227 z"
     id="path5839" />
  <path
     style="opacity:1;fill:#000000;fill-opacity:1;stroke:#000000;stroke-width:2.63962;stroke-linejoin:miter;stroke-dasharray:none;stroke-opacity:1;paint-order:markers stroke fill"
     d="M 395.79063,769.94682 C 343.75209,762.8882 289.28757,743.49202 245.80339,716.53265 163.34206,665.40815 103.20334,582.50471 79.775399,487.65693 72.203537,457.00232 69.665275,434.89924 69.665275,399.61839 c 0,-48.08914 6.996653,-89.65998 21.710828,-128.99559 l 3.006868,-8.0383 h 6.943779 c 4.93925,0 6.731,0.55448 6.2067,1.92077 -8.509878,22.17639 -18.521992,62.5379 -21.80264,87.89229 -2.953523,22.8262 -3.707534,69.78805 -1.213845,75.60151 0.91609,2.13567 4.841605,7.30315 8.72337,11.48329 l 7.057755,7.60028 4.97073,-5.56585 c 5.58244,-6.25078 39.44434,-53.3397 56.0035,-77.87937 l 10.84836,-16.0766 -6.0028,-38.27762 c -7.68889,-49.02924 -7.68317,-46.6987 -0.11465,-46.6987 7.13735,0 5.77958,-4.36502 13.79622,44.35266 3.20065,19.4506 6.23864,35.78401 6.75109,36.29645 1.14837,1.14837 51.87234,8.47938 82.76176,11.96135 l 22.80438,2.5706 12.41103,-8.44924 c 6.82605,-4.64707 36.79449,-26.06281 66.59653,-47.59052 l 54.18549,-39.1413 h 15.96321 c 8.77976,0 17.28788,0.70894 18.90691,1.57543 1.61906,0.86648 31.27031,22.2254 65.89169,47.46425 34.62137,25.23885 63.79704,45.88883 64.83482,45.88883 2.12758,0 101.2836,-19.58208 105.22217,-20.78007 1.39589,-0.42458 2.90533,-1.72928 3.35433,-2.89931 0.44898,-1.17004 2.9803,-17.14743 5.62513,-35.50531 2.64484,-18.35789 5.1378,-33.91029 5.53989,-34.5609 0.4021,-0.65061 3.44642,-1.18292 6.76515,-1.18292 7.49124,0 7.44468,-2.36545 0.84193,42.77317 l -5.02492,34.35209 9.9789,13.11216 c 5.48838,7.21169 22.2972,28.44235 37.35293,47.17925 28.94117,36.01737 30.05476,36.94655 37.78776,31.53016 l 3.62197,-2.53693 -0.88832,-36.12347 c -1.17407,-47.7436 -5.25377,-72.21746 -18.64188,-111.83123 -2.9731,-8.79707 -5.40564,-16.54829 -5.40564,-17.22493 0,-0.67665 3.03572,-1.23027 6.74605,-1.23027 6.66957,0 6.77492,0.0824 9.29393,7.27275 10.92654,31.1889 17.7949,60.98646 20.82949,90.36621 2.67118,25.86139 1.07353,77.55135 -3.12816,101.20812 -11.10861,62.54478 -37.79068,123.37137 -73.53346,167.63269 -12.97256,16.06432 -45.20662,48.25007 -61.29121,61.19938 -20.40355,16.42638 -41.51581,29.80384 -68.86929,43.63799 -13.89478,7.02734 -25.95223,13.33406 -26.79434,14.01494 -4.76299,3.85106 -68.69054,20.54821 -87.5076,22.856 -18.96975,2.32651 -77.41965,1.82887 -96.99054,-0.82576 z m 116.19558,-16.40767 c 20.74199,-4.70947 32.3216,-8.39076 32.3216,-10.27545 0,-0.75501 -1.79914,-2.5516 -3.9981,-3.99241 -3.61042,-2.36564 -11.83734,-2.68526 -84.84603,-3.2962 -44.46636,-0.37209 -82.45681,-0.26018 -84.42321,0.24872 -4.73897,1.22641 -11.81027,11.47453 -9.08129,13.16113 2.02577,1.252 24.3354,5.38999 41.48697,7.69501 5.4737,0.73562 28.21061,1.13078 50.52647,0.87814 37.16001,-0.42071 42.04178,-0.79255 58.01359,-4.41894 z m -160.47849,-17.96236 6.01178,-6.01177 -17.90269,-22.58056 c -31.66312,-39.93648 -46.52359,-57.14912 -50.72574,-58.7548 -8.06742,-3.08264 -108.27866,-27.43812 -111.18971,-27.02371 -2.15435,0.30668 -3.51388,2.52326 -4.95473,8.07818 l -1.9857,7.65553 14.90691,14.33215 c 45.29499,43.54859 87.65301,70.17843 141.73556,89.10694 13.90203,4.86561 14.56979,4.73257 24.10432,-4.80196 z m 233.2402,-5.88834 c 42.45292,-18.85182 75.95011,-41.60428 113.23182,-76.91103 l 15.10696,-14.30666 -1.39858,-6.88997 -1.39857,-6.88997 -15.23947,0.24657 c -12.64469,0.20457 -69.11147,5.51289 -97.62434,9.17744 l -7.36069,0.94601 -6.10021,12.1327 c -7.99703,15.90531 -33.53261,75.58061 -33.53261,78.36395 0,3.15698 10.27223,11.66954 14.08182,11.66954 1.79165,0 10.89688,-3.39236 20.23387,-7.53858 z m -105.51207,-7.79565 56.65088,-0.0326 20.15288,-46.25684 c 16.41969,-37.68807 19.86684,-46.82987 18.60877,-49.35027 -0.84925,-1.70139 -11.28661,-20.49062 -23.19412,-41.75384 l -21.65001,-38.66033 h -86.7237 c -67.53816,0 -87.06386,0.4234 -88.26133,1.91388 -0.84569,1.05264 -12.35367,22.44645 -25.57329,47.54179 l -24.03567,45.62791 4.27489,5.66411 c 8.75855,11.60484 54.70594,70.10473 57.81457,73.60908 3.22745,3.6383 3.22951,3.63849 29.25646,2.68412 14.31583,-0.52496 51.52168,-0.9691 82.67967,-0.987 z M 300.52732,619.71473 c 4.13367,-7.36845 15.53852,-28.59486 25.34408,-47.16979 l 17.82833,-33.77264 -26.72366,-82.40975 c -14.69803,-45.32536 -27.01398,-82.70005 -27.36878,-83.05485 -0.83072,-0.83072 -82.58402,-12.34635 -96.68807,-13.61931 l -10.71773,-0.96734 -7.04388,9.73094 c -33.45617,46.2188 -62.6214,88.71713 -62.6214,91.24924 0,1.69016 0.94381,5.74337 2.09735,9.00715 2.78791,7.88803 34.9811,80.6985 49.4583,111.8585 l 11.51103,24.77579 53.06021,13.01565 c 60.91253,14.94181 58.37305,14.34252 61.76653,14.57597 1.732,0.11912 5.05594,-4.23245 10.09769,-13.21956 z m 439.63561,-18.75348 c 26.34361,-39.41055 40.79523,-72.98898 52.05916,-120.95985 5.83762,-24.86133 7.25563,-34.48708 4.86254,-33.00806 -3.71455,2.29572 -9.38478,13.43466 -23.84789,46.84819 -32.39762,74.8469 -49.78965,117.96473 -49.78965,123.43703 0,4.81348 0.29614,5.24476 2.40157,3.49742 1.32086,-1.09621 7.76228,-10.01284 14.31427,-19.81473 z m -579.8071,12.3033 c -0.2256,-2.73275 -3.41576,-12.30375 -7.08923,-21.26887 -7.58961,-18.52244 -48.31772,-110.32662 -54.100473,-121.94646 -3.928268,-7.89346 -9.152611,-14.5455 -11.423656,-14.5455 -1.420544,0 -1.476488,-0.32343 4.104849,23.73213 8.49449,36.61124 23.09073,73.34668 41.31782,103.98758 11.50966,19.34848 23.90526,36.23649 26.06977,35.518 0.84211,-0.27953 1.34653,-2.74412 1.12092,-5.47688 z m 368.8809,-84.06565 c 0.55303,-0.53223 9.6359,-28.87208 20.18414,-62.97744 28.61565,-92.52227 29.13463,-94.31412 28.09866,-97.01384 -1.33275,-3.4731 -111.3415,-84.7432 -131.60221,-97.22251 l -5.75864,-3.54695 -17.20793,12.39054 c -47.90551,34.49426 -116.65829,85.52116 -117.91574,87.51463 -1.00076,1.58653 6.21238,25.98876 24.19131,81.83977 14.08948,43.76857 25.86466,80.01607 26.16705,80.55001 0.71256,1.25817 172.51732,-0.25807 173.84336,-1.53421 z m 246.18616,-88.02053 c -1.47422,-1.35878 -1.67796,-1.1227 -0.90914,1.05341 0.545,1.54256 1.07083,3.60955 1.16851,4.59332 0.0977,0.98375 0.5068,0.50972 0.90914,-1.05342 0.40235,-1.56313 -0.12356,-3.63013 -1.16851,-4.59331 z m -71.11461,-89.78978 c -0.52046,-0.84211 -1.76687,-1.52056 -2.7698,-1.50766 -1.09568,0.0141 -0.90683,0.61585 0.47314,1.50766 2.94143,1.9009 3.47147,1.9009 2.29666,0 z"
     id="path5847" />
  <path
     style="opacity:1;fill:#000000;fill-opacity:1;stroke:#000000;stroke-width:2.63962;stroke-linejoin:miter;stroke-dasharray:none;stroke-opacity:1;paint-order:markers stroke fill"
     d="m 271.77113,353.46988 c -20.63467,-2.53546 -83.27345,-11.33494 -83.63521,-11.74905 -0.52432,-0.60021 -12.52757,-72.2669 -12.16604,-72.6387 0.20983,-0.21579 53.36125,-0.21579 118.11428,0 l 117.73279,0.39234 -11.45815,8.3543 c -38.2816,27.91167 -109.08462,78.12585 -109.95181,77.97889 -0.56549,-0.0958 -8.95162,-1.14784 -18.63586,-2.33778 z"
     id="path5855" />
  <path
     style="opacity:1;fill:#000000;fill-opacity:1;stroke:#000000;stroke-width:2.63962;stroke-linejoin:miter;stroke-dasharray:none;stroke-opacity:1;paint-order:markers stroke fill"
     d="m 236.28788,241.53215 c 36.48438,-0.2287 95.73814,-0.22862 131.67502,1.8e-4 35.93689,0.22881 6.08604,0.41593 -66.33523,0.41583 -72.42126,-1.1e-4 -101.82417,-0.18731 -65.33979,-0.41601 z"
     id="path5863" />
  <path
     style="opacity:1;fill:#000000;fill-opacity:1;stroke:#000000;stroke-width:2.63962;stroke-linejoin:miter;stroke-dasharray:none;stroke-opacity:1;paint-order:markers stroke fill"
     d="m 174.79998,266.02948 c -1.41015,-2.33916 -9.06041,-55.35219 -8.28095,-57.38343 0.86757,-2.26085 21.6031,-19.44907 97.36337,-80.707 l 47.99661,-38.808908 8.65427,3.573316 c 4.75986,1.965323 31.73569,14.057102 59.9463,26.870622 l 51.29201,23.29732 0.40177,56.15076 0.40177,56.15076 -3.46398,2.88931 c -1.90519,1.5891 -4.04429,2.9122 -4.75358,2.94022 -0.70928,0.028 -3.04145,1.42894 -5.18257,3.11315 -3.81769,3.00301 -6.21136,3.06221 -123.78787,3.06221 -65.94219,0 -120.20641,-0.51674 -120.58715,-1.14833 z m 210.27291,-24.1149 c 0,-2.01338 -10.29242,-2.29666 -83.44522,-2.29666 -45.89487,0 -83.44522,0.57417 -83.44522,1.27592 0,0.70177 0.45934,1.73526 1.02074,2.29666 0.56141,0.56141 38.11175,1.02074 83.44522,1.02074 72.24547,0 82.42448,-0.28362 82.42448,-2.29666 z"
     id="path5877" />
  <path
     style="opacity:1;fill:#000000;fill-opacity:1;stroke:#000000;stroke-width:2.63962;stroke-linejoin:miter;stroke-dasharray:none;stroke-opacity:1;paint-order:markers stroke fill"
     d="M 397.81971,770.83249 C 330.59644,762.5877 261.53134,733.22782 208.23027,690.23716 189.00085,674.72742 159.55244,644.47099 145.17852,625.45536 108.99343,577.58516 84.846493,522.20666 73.410396,460.86259 70.004829,442.59487 68.632092,380.71104 71.10792,357.06552 76.127325,309.12744 85.569067,278.4175 110.34529,229.4432 138.07975,174.62141 184.8795,121.9794 235.02461,89.19947 254.1333,76.708094 299.12155,53.871739 318.46983,46.84208 395.26188,18.941827 485.74676,18.589397 563.91609,45.88609 c 53.55116,18.700045 96.45903,45.172097 136.37267,84.13524 41.57276,40.58277 61.56089,70.02297 90.52221,133.32872 8.38392,18.32616 19.41098,62.11031 23.03467,91.46158 2.52806,20.47689 1.12387,85.75158 -2.26443,105.26406 -7.51517,43.27809 -23.9674,89.33794 -45.40019,127.1028 -14.675,25.85756 -31.68017,47.3938 -58.68129,74.31711 -36.24587,36.14139 -61.51847,53.96984 -111.89991,78.9393 -19.61838,9.72303 -29.07202,13.3823 -47.46425,18.37221 -46.10834,12.50948 -45.92114,12.48394 -94.92851,12.95024 -24.42112,0.23236 -49.34543,-0.18382 -55.38735,-0.92486 z m 121.22487,-19.54575 c 23.96179,-5.9882 25.55861,-6.76291 21.7647,-10.55936 -2.54705,-2.54874 -8.49978,-2.76497 -87.49689,-3.17827 l -84.76392,-0.44346 -3.22107,4.09494 c -6.20686,7.89074 -5.64327,8.18568 25.86991,13.53812 9.7818,1.6614 24.80384,2.12499 60.47865,1.86635 l 47.46425,-0.3441 z m -169.85272,-14.3153 c 3.93419,-3.6264 6.57757,-7.27628 6.12462,-8.45664 -1.04795,-2.73093 -47.72494,-60.66569 -57.45264,-71.30935 -7.01721,-7.67794 -8.48704,-8.51819 -20.27419,-11.59009 -34.23598,-8.92238 -94.63341,-23.2212 -98.08508,-23.2212 -2.99053,0 -4.28332,1.11824 -5.57438,4.82179 -0.92449,2.65199 -1.68088,6.00963 -1.68088,7.46142 0,1.45181 7.15476,9.53092 15.89948,17.95359 42.12996,40.57843 83.36251,66.72048 134.91435,85.5377 7.57897,2.76645 15.00108,5.0643 16.49359,5.10634 1.4925,0.0421 5.82832,-2.79455 9.63513,-6.30356 z m 224.8393,-3.46659 c 27.60203,-10.38937 69.10003,-34.85278 95.54339,-56.32364 16.49482,-13.39306 43.0587,-39.40116 42.41591,-41.52846 -0.29505,-0.97642 -0.95162,-3.67004 -1.45905,-5.98584 -0.88261,-4.028 -1.32443,-4.21054 -10.19095,-4.21054 -11.02303,0 -54.93424,3.72823 -86.65098,7.35699 l -22.68297,2.59519 -5.6747,10.71774 c -4.68287,8.84447 -31.03261,69.23064 -33.76722,77.38494 -0.43543,1.29843 -0.008,3.38161 0.95184,4.62928 1.72216,2.24061 10.08632,9.08652 11.10172,9.08652 0.28826,0 4.97412,-1.67498 10.41301,-3.72218 z M 460.30773,721.91598 h 74.85206 l 3.93101,-8.80385 c 15.09772,-33.81269 34.35417,-80.14362 34.61379,-83.28064 0.19819,-2.39453 -7.6619,-18.08231 -21.60096,-43.11287 l -21.91252,-39.3486 -87.48738,0.006 -87.48738,0.006 -24.23658,45.87781 c -13.33012,25.23281 -24.00958,46.90297 -23.73213,48.15593 0.27745,1.25295 13.5954,18.89978 29.59545,39.21514 16.00004,20.31537 29.80698,37.84818 30.6821,38.96178 1.96352,2.49867 7.69266,3.74035 13.52855,2.93203 2.42106,-0.33462 38.08535,-0.60898 79.25399,-0.60898 z M 297.18906,624.30804 c 8.71436,-14.83051 43.58881,-80.88448 44.44306,-84.17741 0.56589,-2.18129 -8.60119,-32.55048 -25.41937,-84.21077 -14.46743,-44.43954 -26.76805,-81.23704 -27.33472,-81.77224 -1.65223,-1.56049 -105.82919,-15.88803 -106.76418,-14.68337 -4.32314,5.57005 -47.4868,66.99104 -56.79532,80.81856 l -12.94469,19.22896 2.54195,7.56537 c 6.19663,18.44255 59.22345,135.49991 62.25606,137.43105 3.04758,1.94068 105.46308,26.83678 110.91317,26.96179 4.18822,0.096 5.39889,-0.85634 9.10404,-7.16194 z m 435.37533,-13.05512 c 22.09932,-30.87355 40.96433,-68.69783 51.29485,-102.846 6.63558,-21.9343 13.37801,-52.15409 12.78259,-57.29205 -0.70637,-6.09554 -9.66408,12.08299 -33.86987,68.73458 -31.63524,74.03955 -41.89457,101.08822 -38.29821,100.97288 0.69851,-0.0224 4.33928,-4.32863 8.09064,-9.56941 z m -573.02399,1.24383 c -1.16354,-7.17006 -9.3997,-27.31711 -31.5358,-77.14199 -28.927681,-65.11164 -36.750673,-80.51459 -39.49744,-77.76782 -1.600363,1.60036 10.491694,48.21664 17.13332,66.05095 11.30977,30.36933 26.44886,59.06064 44.63614,84.59355 7.74699,10.87591 10.54564,12.16449 9.26378,4.26531 z M 537.29587,502.81617 c 22.97548,-72.0508 37.86811,-122.22321 38.12058,-128.42606 l 0.27901,-6.85503 -34.61103,-26.06372 c -47.41968,-35.70927 -94.83344,-69.56888 -98.92377,-70.64448 -2.67684,-0.70389 -11.70425,5.16863 -42.87094,27.88848 -57.46177,41.88843 -93.83428,69.38608 -93.83428,70.93879 0,3.41868 42.25252,138.41715 49.81952,159.17535 0.6539,1.7938 14.38075,2.0351 87.10229,1.53111 l 86.32606,-0.5983 z M 103.51134,442.87211 c 12.21474,-14.26782 67.17577,-92.96236 67.25773,-96.30127 0.0503,-2.04732 -7.15373,-52.68033 -15.10817,-106.18736 l -4.0971,-27.55989 -7.21284,-0.46454 c -3.96706,-0.2555 -8.58517,0.2699 -10.26246,1.16758 -4.32074,2.31238 -23.15144,41.82817 -29.8775,62.69721 -13.172892,40.87178 -18.743058,71.68908 -20.231128,111.93004 -1.302874,35.23279 -0.697279,38.8262 8.33772,49.47352 3.962326,4.66942 7.438286,8.53482 7.724358,8.58977 0.28607,0.055 1.8473,-1.45032 3.46939,-3.34506 z m 696.92199,-14.00916 c 1.39857,-1.9691 0.0857,-47.73516 -2.06876,-72.1155 -2.11707,-23.95752 -6.56051,-44.58303 -16.10569,-74.75941 -8.8782,-28.06777 -24.5774,-62.67933 -29.24221,-64.46938 -1.50562,-0.57778 -6.94415,-1.44331 -12.08562,-1.92344 -7.14882,-0.66756 -9.53785,-0.37585 -10.15461,1.23992 -0.44359,1.16208 -2.2964,13.48132 -4.11735,27.3761 -1.82096,13.89478 -5.42668,40.95037 -8.01271,60.12352 -4.19369,31.09253 -4.45963,35.22964 -2.46048,38.27762 3.16113,4.81962 35.46691,45.6928 54.25201,68.6395 8.68491,10.60896 17.33959,19.99681 19.2326,20.86192 3.55466,1.62444 8.32308,0.18416 10.76282,-3.25085 z M 304.45676,348.76602 c 6.86507,-4.81084 35.70759,-25.48079 64.09447,-45.93321 28.38687,-20.45243 54.74904,-39.08078 58.58259,-41.39633 l 6.97009,-4.21008 -0.4006,-57.81958 -0.40061,-57.81957 -33.68431,-15.40397 c -54.61866,-24.97731 -84.69135,-38.144746 -87.11765,-38.144746 -2.11066,0 -53.03832,40.508566 -120.51346,95.858076 l -28.49183,23.37168 1.33644,8.90208 c 2.04601,13.62853 2.68365,14.60536 1.78122,2.72872 l -0.8181,-10.76665 13.74845,-11.7584 c 7.56165,-6.46711 14.18134,-11.32549 14.71043,-10.7964 0.5291,0.52908 0.96199,0.22305 0.96199,-0.68009 0,-1.94502 62.97479,-53.39761 64.67259,-52.83975 0.6407,0.21053 1.16492,-0.23237 1.16492,-0.98421 0,-1.20335 37.0753,-31.848305 37.79403,-31.239031 0.15507,0.131461 2.78788,-2.124373 5.85066,-5.012954 3.06279,-2.888581 6.59163,-5.251966 7.84186,-5.251966 2.10946,0 41.56607,17.401511 96.26508,42.455691 l 22.96657,10.51954 0.41846,56.57482 c 0.41489,56.09532 0.39084,56.59748 -2.83892,59.24606 -1.79156,1.46917 -3.8746,2.28976 -4.62899,1.82352 -0.75439,-0.46624 -1.37162,-0.19655 -1.37162,0.5993 0,0.79586 -2.27934,2.52864 -5.06522,3.85061 -4.45916,2.11602 -18.79416,2.41028 -119.80896,2.45935 -63.10905,0.0306 -116.98299,-0.36013 -119.71984,-0.86842 -3.08507,-0.57299 -4.97609,-1.8292 -4.97609,-3.30565 0,-1.30978 -0.32801,-2.05342 -0.72891,-1.65252 -0.40091,0.40091 0.23331,5.16647 1.40938,10.59015 1.76053,8.11908 2.1598,8.87713 2.26002,4.29089 l 0.12172,-5.57031 35.59819,-1.03132 c 19.57901,-0.56722 72.69633,-0.81657 118.03849,-0.55409 l 82.44029,0.47721 -56.92501,40.57428 c -31.30876,22.31586 -57.55519,40.40203 -58.32539,40.19151 -0.77021,-0.21053 -1.40038,0.30622 -1.40038,1.14833 0,0.8421 -0.73821,1.5311 -1.64047,1.5311 -0.90225,0 -2.67397,1.0335 -3.93713,2.29666 -5.17185,5.17184 1.92842,1.84476 13.76555,-6.45033 z m 350.64159,-4.24756 c 22.61889,-4.4907 41.79203,-8.83166 42.60696,-9.64659 1.36034,-1.36034 4.17825,-17.88041 16.47302,-96.57331 l 4.3924,-28.11369 -4.89984,-4.30212 C 682.67808,178.6707 572.10216,88.038534 569.89485,88.038534 c -1.59996,0 -29.71499,12.157176 -62.47784,27.015946 l -59.56881,27.01594 v 56.16238 56.16238 l 3.44498,3.13777 c 1.89475,1.72579 5.00629,3.94303 6.91453,4.92724 1.90825,0.98419 28.43464,19.86734 58.94754,41.96256 30.51291,22.09521 59.4836,42.98842 64.37935,46.42934 l 8.90134,6.25621 11.76858,-2.21249 c 6.4727,-1.21686 30.27494,-5.88667 52.89383,-10.37735 z m -375.28892,10.44942 c -1.05264,-0.42474 -2.77513,-0.42474 -3.82776,0 -1.05264,0.42474 -0.19139,0.77227 1.91388,0.77227 2.10527,0 2.96651,-0.34753 1.91388,-0.77227 z m -12.2197,-1.5214 c -1.03661,-0.4194 -3.1036,-0.44492 -4.59332,-0.0568 -1.48972,0.38819 -0.64158,0.73135 1.88475,0.76255 2.52632,0.0312 3.74517,-0.28641 2.70857,-0.70582 z m -11.51243,-1.58223 c -1.47369,-0.3851 -3.88518,-0.3851 -5.35887,0 -1.47368,0.38512 -0.26794,0.70022 2.67944,0.70022 2.94738,0 4.15312,-0.3151 2.67943,-0.70022 z m -10.71773,-1.5311 c -1.47369,-0.3851 -3.88518,-0.3851 -5.35887,0 -1.47369,0.38512 -0.26794,0.70022 2.67943,0.70022 2.94738,0 4.15313,-0.3151 2.67944,-0.70022 z m -12.24884,-1.53111 c -1.47369,-0.3851 -3.88518,-0.3851 -5.35887,0 -1.47369,0.38512 -0.26794,0.70022 2.67943,0.70022 2.94738,0 4.15313,-0.3151 2.67944,-0.70022 z m -10.71774,-1.5311 c -1.47369,-0.3851 -3.88518,-0.3851 -5.35886,0 -1.47369,0.38512 -0.26795,0.70022 2.67943,0.70022 2.94738,0 4.15312,-0.3151 2.67943,-0.70022 z m -9.92304,-1.47998 c -1.03661,-0.4194 -3.1036,-0.44493 -4.59331,-0.0568 -1.48972,0.3882 -0.64159,0.73135 1.88474,0.76255 2.52632,0.0312 3.74518,-0.2864 2.70857,-0.70582 z m -10.71773,-1.53111 c -1.03661,-0.4194 -3.1036,-0.44492 -4.59332,-0.0568 -1.48971,0.38819 -0.64158,0.73135 1.88474,0.76255 2.52633,0.0312 3.74518,-0.28641 2.70858,-0.70582 z m -11.56714,-3.97178 c -3.43283,-3.48822 -5.15963,-2.91041 -3.58276,1.19884 0.47406,1.23539 2.23693,2.24615 3.91748,2.24615 2.95416,0 2.94305,-0.11437 -0.33472,-3.44499 z m -4.64101,-9.09093 c -0.48877,-1.22141 -0.85158,-0.85861 -0.92505,0.92505 -0.0665,1.61403 0.2954,2.51834 0.80417,2.00957 0.50877,-0.50878 0.56317,-1.82936 0.12088,-2.93462 z m -1.56301,-9.28233 c -0.42475,-1.05263 -0.77227,-0.19138 -0.77227,1.91389 0,2.10527 0.34752,2.96651 0.77227,1.91388 0.42475,-1.05264 0.42475,-2.77513 0,-3.82777 z m -1.5311,-9.18662 c -0.42475,-1.05264 -0.77227,-0.19139 -0.77227,1.91388 0,2.10527 0.34752,2.96651 0.77227,1.91388 0.42474,-1.05264 0.42474,-2.77513 0,-3.82776 z m -1.53111,-9.18663 c -0.42475,-1.05264 -0.77226,-0.19139 -0.77226,1.91388 0,2.10527 0.34751,2.96651 0.77226,1.91388 0.42475,-1.05264 0.42475,-2.77513 0,-3.82776 z m -1.5311,-9.18663 c -0.42475,-1.05264 -0.77227,-0.19139 -0.77227,1.91388 0,2.10527 0.34752,2.96651 0.77227,1.91388 0.42474,-1.05264 0.42474,-2.77513 0,-3.82776 z m -1.53111,-9.18663 c -0.42475,-1.05264 -0.77226,-0.19139 -0.77226,1.91388 0,2.10527 0.34751,2.96651 0.77226,1.91388 0.42475,-1.05264 0.42475,-2.77513 0,-3.82776 z m -6.12442,-32.15321 c -0.42475,-1.05263 -0.77226,-0.19139 -0.77226,1.91388 0,2.10527 0.34751,2.96652 0.77226,1.91388 0.42475,-1.05263 0.42475,-2.77512 0,-3.82776 z m -1.48408,-9.92304 c -0.3882,-1.48972 -0.73135,-0.64158 -0.76256,1.88474 -0.0312,2.52632 0.28642,3.74518 0.70582,2.70857 0.41941,-1.0366 0.44494,-3.10359 0.0567,-4.59331 z m 163.24151,-0.0245 c -11.10759,-0.26125 -29.71051,-0.26193 -41.33984,-0.001 -11.62934,0.26043 -2.54131,0.47419 20.1956,0.475 22.73691,8.3e-4 32.25181,-0.21226 21.14424,-0.47351 z m 0.674,-3.06256 c -10.73687,-0.2632 -28.3063,-0.2632 -39.04317,0 -10.73688,0.26319 -1.95216,0.47854 19.52159,0.47854 21.47374,0 30.25846,-0.21535 19.52158,-0.47854 z m -165.44662,-7.63068 c -0.3882,-1.48972 -0.73135,-0.64158 -0.76255,1.88475 -0.0312,2.52632 0.28642,3.74517 0.70582,2.70857 0.4194,-1.03661 0.44493,-3.1036 0.0567,-4.59332 z m 574.63442,-30.8028 c 0,-2.28287 -17.8879,-25.42418 -31.11038,-40.24704 C 690.04078,136.43719 664.40918,114.30718 635.40855,94.988192 619.83287,84.61234 579.6882,63.540855 575.49616,63.540855 c -2.76927,0 -1.6989,4.895035 2.34357,10.717735 1.4616,2.105269 30.85945,27.4673 65.32855,56.36007 84.67115,70.97325 82.75055,69.43492 88.34915,70.76485 6.91507,1.64266 11.83402,1.72081 11.83402,0.188 z m -585.884,-6.67503 c 15.14462,-10.6039 139.06827,-111.987561 145.85263,-119.324072 5.79111,-6.262438 7.55167,-10.500448 4.3621,-10.500448 -3.22815,0 -40.17758,18.723232 -56.55881,28.659807 -22.84452,13.857083 -41.8506,28.959263 -62.03191,49.290353 -15.61584,15.73174 -39.87738,44.48739 -45.00547,53.34209 -1.92489,3.32372 8.11027,2.22303 13.38146,-1.46773 z m 309.65603,-75.509 c 14.09604,-6.3371 41.41727,-18.85872 60.71388,-27.82583 l 35.08472,-16.303838 -1.00839,-5.475703 c -2.48503,-13.494203 -4.63603,-14.740751 -38.56835,-22.351151 -33.03561,-7.409283 -48.35473,-8.767284 -89.27709,-7.914185 -40.6604,0.84764 -53.47333,2.55186 -88.13145,11.722188 l -18.35191,4.855797 -3.4092,8.351951 c -4.37976,10.729647 -4.29434,12.239875 0.80133,14.166466 2.3158,0.875564 29.01444,12.967529 59.33032,26.871035 30.31588,13.9035 55.5849,25.31199 56.15338,25.35218 0.56849,0.0402 12.56673,-5.11181 26.66276,-11.44891 z"
     id="path5885" />
  <path
     style="opacity:1;fill:#000000;fill-opacity:1;stroke:#000000;stroke-width:2.63962;stroke-linejoin:miter;stroke-dasharray:none;stroke-opacity:1;paint-order:markers stroke fill"
     d="m 181.08058,269.13038 c 2.75193,-0.34076 6.88592,-0.33373 9.18663,0.0156 2.30072,0.34936 0.0491,0.62816 -5.00351,0.61957 -5.05265,-0.009 -6.93505,-0.29443 -4.18312,-0.6352 z"
     id="path5893" />
  <path
     style="opacity:1;fill:#000000;fill-opacity:1;stroke:#000000;stroke-width:2.63962;stroke-linejoin:miter;stroke-dasharray:none;stroke-opacity:1;paint-order:markers stroke fill"
     d="M 398.08729,771.38176 C 316.49481,760.69039 238.57922,723.15148 182.01376,667.27979 128.99435,614.91067 95.910839,556.71484 78.159862,484.59472 71.368965,457.0041 69.328139,436.74162 69.36634,397.28764 69.427326,334.3 77.876805,295.98353 103.36554,243.109 c 13.95289,-28.94429 23.28399,-44.82322 37.76288,-64.26193 33.75181,-45.31371 71.07235,-78.40934 116.86276,-103.633202 48.23451,-26.570206 82.60278,-38.784255 130.45463,-46.361942 24.38706,-3.861868 83.69998,-3.861868 108.08704,0 40.56806,6.424244 75.77585,17.621702 112.321,35.722486 37.83092,18.73762 67.04554,39.968598 97.9655,71.193908 32.59191,32.91378 50.10209,57.63899 71.91886,101.55295 29.64844,59.67794 40.18509,113.78109 36.37852,186.7948 -2.62401,50.33097 -15.40218,97.70973 -39.19329,145.32032 -17.2676,34.5558 -32.78829,56.06342 -62.38623,86.45098 -37.07162,38.06061 -61.9254,56.3232 -109.51631,80.47269 -28.94244,14.68653 -39.50324,18.721 -70.43083,26.90627 -30.02343,7.94598 -42.29551,9.18111 -88.80408,8.93768 -23.15797,-0.12127 -44.17238,-0.49123 -46.6987,-0.82225 z m 114.06255,-18.92152 c 22.02244,-5.27911 29.09576,-7.68322 29.09576,-9.88918 0,-3.26127 -7.11048,-3.60831 -92.14911,-4.49763 -85.34729,-0.89256 -81.15952,-1.22466 -85.44104,6.77547 -1.92459,3.59609 -0.39979,4.21307 19.12079,7.73691 12.62688,2.2794 24.16879,2.78402 65.83751,2.87849 45.79368,0.10381 51.74507,-0.17758 63.53609,-3.00406 z M 348.98645,735.80395 c 3.23118,-3.30903 5.51297,-6.92626 5.07065,-8.0383 -1.27152,-3.19678 -45.34629,-57.5741 -55.27482,-68.19539 -7.56675,-8.09474 -10.44068,-10.04764 -18.37326,-12.48515 -13.76506,-4.22968 -92.71044,-22.97248 -98.92516,-23.48631 -4.95418,-0.4096 -5.44656,-0.0335 -7.32989,5.59763 l -2.01896,6.03672 13.45432,13.62406 c 37.80292,38.27991 83.5396,68.3027 132.11495,86.72384 20.76366,7.87416 23.78985,7.89572 31.28217,0.2229 z m 246.61337,-12.9469 c 40.43725,-20.03995 68.40772,-39.55919 97.72582,-68.19813 16.7171,-16.32983 18.0387,-18.03709 17.20188,-22.22126 -1.56969,-7.84845 1.19701,-7.62226 -46.79353,-3.82539 -22.44057,1.77544 -72.09703,7.1545 -72.73795,7.87939 -3.44935,3.90124 -39.03271,85.13971 -39.03271,89.11347 0,1.21732 2.23924,4.016 4.97609,6.21928 6.95817,5.60159 11.29033,4.59672 38.6604,-8.96736 z m -60.79944,-2.85495 c 1.89941,-2.29315 20.51693,-44.86139 31.26464,-71.48539 l 7.6882,-19.04506 -4.11219,-8.51483 c -2.26171,-4.68316 -12.15966,-23.15199 -21.99546,-41.04185 l -17.88326,-32.52701 -87.16648,0.37381 -87.16648,0.3738 -21.8049,41.33983 c -11.99271,22.73691 -22.64996,43.89882 -23.68277,47.02647 -1.85809,5.62675 -1.78367,5.8122 7.06431,17.60771 17.26754,23.01988 48.49422,62.47529 51.54426,65.12697 2.85145,2.47906 9.12396,2.67943 83.87341,2.67943 62.76696,0 81.14513,-0.42698 82.37672,-1.91388 z m -241.1379,-92.08968 c 3.41864,-3.71926 42.50535,-76.02053 45.76276,-84.65042 1.50143,-3.97775 1.12233,-6.98591 -2.48016,-19.68032 -6.48861,-22.8644 -46.91531,-146.74233 -48.39813,-148.30443 -1.42316,-1.49924 -74.2876,-12.36038 -94.14254,-14.03285 l -12.29475,-1.03564 -23.05394,32.71921 c -12.67967,17.99556 -28.13216,40.1257 -34.33887,49.17806 l -11.28493,16.45886 1.84497,6.89813 c 4.48121,16.75473 59.12492,136.43217 63.31854,138.67653 2.98541,1.59775 104.17607,26.60931 110.47374,27.30611 0.67179,0.0743 2.73878,-1.51565 4.59331,-3.53324 z m 445.10685,-27.15691 c 14.48143,-21.66447 32.72934,-58.03759 40.60924,-80.94538 6.87982,-20.00043 16.36495,-58.74516 15.69748,-64.12085 -0.42926,-3.45727 -1.26508,-2.52835 -6.03254,6.70441 -9.57161,18.5366 -48.61241,110.24415 -58.85786,138.25818 -4.86418,13.30008 -6.16613,18.68008 -4.52051,18.68008 0.37781,0 6.27471,-8.35939 13.10419,-18.57644 z M 158.36405,610.5281 C 154.97248,595.67335 99.282837,469.88423 92.103803,460.86259 c -2.408599,-3.0268 -2.437338,-3.02116 -2.48547,0.48808 -0.05457,3.97831 5.545878,26.69188 11.290957,45.79247 4.85956,16.15652 13.44092,37.68227 21.22492,53.24127 11.41904,22.82489 32.84712,55.88533 36.222,55.88533 0.7362,0 0.73967,-2.53632 0.008,-5.74164 z m 370.14897,-82.13181 c 0.67053,-0.51953 33.02863,-104.98785 39.40172,-127.20868 3.85834,-13.45277 7.01517,-26.55322 7.01517,-29.11213 0,-4.18226 -2.05072,-6.19215 -20.28714,-19.88334 -63.31015,-47.53075 -109.61378,-80.42101 -113.21849,-80.42101 -3.30405,0 -14.11734,7.25477 -52.52362,35.23876 -58.37565,42.53426 -81.1072,60.27838 -81.60453,63.70001 -0.44938,3.09167 14.67771,53.41462 36.76515,122.30589 l 11.29052,35.21542 6.82226,0.98796 c 5.42721,0.78594 165.2832,-0.005 166.33896,-0.82288 z M 105.90934,439.04434 c 8.02756,-10.01253 40.38618,-55.57537 52.7773,-74.31352 9.48234,-14.33943 11.77763,-18.89887 11.17635,-22.20102 -0.41617,-2.28559 -4.52465,-30.682 -9.12994,-63.10315 -4.60529,-32.42114 -8.73422,-60.49778 -9.17541,-62.39252 -0.71129,-3.0548 -1.75045,-3.44499 -9.17484,-3.44499 -8.18392,0 -8.4655,0.14668 -12.48828,6.5072 -6.38297,10.09218 -20.22566,41.50076 -25.78772,58.51139 -11.864681,36.28619 -16.865284,64.0849 -19.089494,106.1199 -1.347112,25.45885 -1.240552,30.8226 0.817613,41.15494 0.718385,3.60642 12.235028,18.90342 14.231801,18.90342 0.68159,0 3.31077,-2.58374 5.84262,-5.74165 z m 691.74751,-8.57881 c 2.65947,-1.94465 2.77493,-4.12646 1.88375,-35.59819 -0.97198,-34.3252 -2.52271,-50.92685 -6.62353,-70.90963 -8.60368,-41.92469 -32.30971,-102.41626 -41.50611,-105.91272 -2.01605,-0.7665 -7.33349,-1.39364 -11.81655,-1.39364 -7.98825,0 -8.16921,0.0994 -9.06269,4.97609 -2.1196,11.56898 -14.74016,109.36586 -14.74016,114.22164 0,6.1418 1.4152,8.15099 37.15752,52.75332 26.9745,33.66111 36.23643,43.93475 39.60818,43.93475 1.24656,0 3.54138,-0.93223 5.09959,-2.07162 z M 639.32558,346.95617 c 54.39344,-10.88869 57.6791,-11.73487 58.72302,-15.12332 1.58642,-5.14932 19.27407,-114.86516 19.27407,-119.5564 0,-2.9142 -61.62777,-55.35831 -122.22004,-104.00706 -21.83523,-17.531214 -25.44346,-19.89751 -28.54338,-18.718922 -5.43391,2.065971 -67.53961,29.773872 -94.21337,42.032462 l -23.73213,10.90668 -0.42712,53.54025 c -0.2349,29.44713 -0.0899,54.92946 0.32215,56.62741 0.41718,1.71891 7.05308,7.41899 14.97261,12.86107 11.05752,7.59843 66.22844,47.15871 122.16625,87.59925 2.10527,1.52202 4.89946,2.78913 6.20931,2.8158 1.30984,0.0267 22.67073,-4.01307 47.46863,-8.97722 z m -445.6408,-79.73513 c -10.52635,-0.44484 -19.46336,-0.59906 -19.86003,-0.34276 -2.73656,1.76829 5.31806,2.49214 20.85142,1.87386 l 18.14742,-0.72231 z m 223.31954,0.12616 c 1.2124,-0.76823 -2.60626,-1.02583 -9.18663,-0.6197 -15.13785,0.93426 -16.67666,1.71821 -3.60598,1.83702 5.89475,0.0536 11.65143,-0.49421 12.79261,-1.21732 z m 324.81603,-67.06067 c 0,-3.02665 -24.60063,-32.80462 -41.33984,-50.04003 C 668.29318,117.10503 639.87734,96.091802 598.39819,74.757677 579.6351,65.107182 575.60704,63.532405 575.18592,65.682813 c -0.89413,4.565758 3.82933,9.608011 30.01621,32.042147 49.19408,42.14424 119.95232,100.71789 123.29567,102.06413 4.05164,1.63144 13.32255,1.97759 13.32255,0.49744 z m -589.4628,-3.77336 c 6.12062,-2.13367 96.1099,-74.12418 140.19044,-112.150946 23.89479,-20.613207 21.21913,-22.690474 -9.3453,-7.255278 -53.16247,26.847324 -87.66856,55.000824 -126.34761,103.086944 -14.86418,18.47929 -15.30744,20.08762 -4.49753,16.31928 z M 482.83108,111.55406 C 504.43272,101.7507 531.18024,89.423201 542.27,84.159629 l 20.16321,-9.570135 -1.16773,-5.177563 c -2.8597,-12.67959 -7.22886,-14.927681 -44.69829,-22.998922 l -23.5514,-5.073175 -51.29201,0.06785 c -55.78647,0.0738 -56.44085,0.146405 -97.42655,10.80947 l -16.22059,4.220039 -2.88953,6.740977 c -5.67674,13.243295 -9.25732,10.644877 54.90969,39.84774 31.78957,14.46766 59.07257,26.31555 60.6289,26.32864 1.55633,0.0132 20.50376,-7.99712 42.10538,-17.80049 z"
     id="path5901" />
  <path
     style="opacity:1;fill:#000000;fill-opacity:1;stroke:#000000;stroke-width:2.63962;stroke-linejoin:miter;stroke-dasharray:none;stroke-opacity:1;paint-order:markers stroke fill"
     d="m 320.14451,734.11157 c -30.18741,-11.21606 -63.24815,-29.61937 -92.00987,-51.21744 -19.85573,-14.91028 -52.82312,-45.89006 -52.82312,-49.6384 0,-1.44142 0.9337,-3.89769 2.0749,-5.45837 2.00028,-2.73554 2.97783,-2.63105 27.17712,2.90492 45.3104,10.36547 73.9909,17.8367 80.57985,20.99095 4.24034,2.02993 10.6494,7.95843 18.53087,17.14138 17.77374,20.70879 47.71433,58.14403 47.71433,59.65808 0,0.7229 -2.01399,3.32836 -4.47555,5.78991 -5.74574,5.74575 -10.93302,5.71261 -26.76853,-0.17103 z"
     id="path5937" />
  <path
     style="opacity:1;fill:#000000;fill-opacity:1;stroke:#000000;stroke-width:2.63962;stroke-linejoin:miter;stroke-dasharray:none;stroke-opacity:1;paint-order:markers stroke fill"
     d="m 416.46055,772.45659 c -31.15764,-1.23655 -54.32157,-5.63825 -87.78324,-16.6809 -58.99115,-19.46761 -106.91819,-48.59056 -148.86247,-90.4565 -32.9366,-32.8751 -53.77841,-61.63746 -72.70955,-100.34146 -13.953376,-28.52717 -20.736525,-46.88146 -28.25546,-76.45549 -8.009175,-31.50228 -9.750313,-47.54725 -9.730575,-89.6694 0.02976,-63.50008 7.159583,-98.3235 30.56449,-149.28273 19.785315,-43.07833 42.358285,-76.7712 72.783645,-108.63832 32.4019,-33.93733 60.5095,-54.139508 107.72482,-77.426603 39.54703,-19.505017 64.38222,-27.775493 104.11513,-34.67182 21.93922,-3.807929 94.3692,-3.813596 116.36398,-0.0091 37.56077,6.496979 72.35712,17.791639 107.17734,34.789044 58.30048,28.459234 109.88244,74.001789 146.45321,129.305919 12.86394,19.45349 34.95318,62.70466 41.83517,81.91412 6.02858,16.82733 13.92703,48.7537 17.04551,68.89972 3.68227,23.78835 3.7462,81.68471 0.11912,107.9429 -8.17525,59.1854 -34.06674,123.85604 -67.12608,167.66466 -17.05176,22.59614 -54.29241,60.37281 -75.87066,76.96267 -29.02917,22.31831 -81.58863,50.835 -110.32978,59.86059 -21.9901,6.90554 -45.41809,12.57594 -60.06943,14.53892 -16.32654,2.18742 -53.06378,2.95952 -83.44522,1.75379 z m 101.05292,-22.23884 c 40.32597,-9.41344 34.84859,-10.39729 -62.28702,-11.18798 -44.36313,-0.36111 -82.41036,-0.21733 -84.54934,0.31953 -4.82309,1.21052 -8.32079,6.85742 -5.37514,8.67793 7.51484,4.64444 56.61222,7.53336 108.57501,6.38864 22.68254,-0.49969 31.37566,-1.33602 43.63649,-4.19812 z M 348.47763,735.534 c 2.44314,-2.61538 4.44206,-5.69117 4.44206,-6.83509 0,-2.02468 -25.70578,-34.9456 -46.54247,-59.60605 -13.39467,-15.85274 -18.70002,-19.76356 -31.00345,-22.85408 -12.9555,-3.25432 -14.31194,-2.22895 -1.69202,1.27902 13.62875,3.78841 18.01496,6.99773 32.31582,23.64498 19.2393,22.39594 45.39102,55.69725 45.39102,57.8004 0,1.02698 -2.20795,3.72507 -4.90654,5.9958 -4.18388,3.52051 -5.93154,4.01885 -11.86606,3.38371 -3.82775,-0.40968 -8.33753,-1.1832 -10.02174,-1.71891 -1.68422,-0.53572 -0.99522,0.0387 1.5311,1.27666 2.52633,1.23787 7.58963,2.28176 11.25177,2.31975 5.52176,0.0573 7.41678,-0.74274 11.10051,-4.68619 z m -33.07001,-2.55298 c -23.98138,-9.46554 -83.44522,-43.76945 -83.44522,-48.13846 0,-0.94301 -0.43205,-1.28252 -0.96011,-0.75445 -1.37395,1.37395 -21.59933,-15.45675 -40.34787,-33.57579 -15.3481,-14.83278 -15.99035,-15.70918 -14.53812,-19.83857 0.90788,-2.58155 3.05432,-4.74745 5.33337,-5.38174 l 3.81403,-1.0615 -4.24844,-0.15265 c -3.28109,-0.1179 -4.60776,0.79248 -5.82655,3.99815 -0.86797,2.28293 -1.19609,5.67292 -0.72916,7.5333 0.98663,3.93108 27.9045,29.42129 46.78511,44.30375 16.78926,13.23398 30.92857,22.73459 48.87042,32.83747 14.53488,8.18444 47.04674,23.03239 49.88585,22.78253 0.84211,-0.0741 -1.22488,-1.22254 -4.59331,-2.55207 z M 596.93574,721.4051 c 38.95598,-19.44706 68.72203,-40.43544 97.89818,-69.02915 13.58444,-13.31325 14.97754,-15.19747 14.5455,-19.67317 l -0.47783,-4.94975 -19.25761,0.28056 c -16.12243,0.23488 -54.70589,3.5095 -89.92599,7.63213 l -8.13069,0.95172 -5.07509,10.11328 c -6.40196,12.75737 -20.89125,45.46021 -28.55573,64.45127 l -5.86377,14.52923 4.14585,4.36468 c 6.25516,6.58533 13.02621,5.14272 40.69718,-8.6708 z m -95.29736,-1.01647 33.12028,-0.003 11.16981,-25.64601 c 6.1434,-14.10531 14.78851,-34.60297 19.21137,-45.55037 l 8.04155,-19.90437 -11.21769,-21.43547 c -6.16974,-11.78951 -15.99965,-30.04793 -21.84426,-40.57428 l -10.62657,-19.13881 -86.37271,0.53436 c -62.49836,0.38663 -86.84573,1.02146 -88.08402,2.29665 -3.56383,3.67005 -43.71253,82.53803 -44.50598,87.42741 -0.74258,4.57611 0.44041,6.80062 11.10676,20.88518 6.56582,8.66996 20.06403,25.94206 29.996,38.38247 l 18.05813,22.61892 16.49477,0.60849 c 9.07214,0.33467 31.30822,0.35984 49.41354,0.0559 18.10531,-0.30393 47.82288,-0.55428 66.03902,-0.55634 z M 262.16983,642.90458 c -0.50879,-0.50877 -1.82937,-0.56315 -2.93462,-0.1208 -1.22141,0.48876 -0.85862,0.85157 0.92504,0.92503 1.61403,0.0665 2.51835,-0.2954 2.00958,-0.80417 z m -6.12442,-1.5311 c -0.50879,-0.50877 -1.82936,-0.56316 -2.93462,-0.12081 -1.22141,0.48876 -0.85862,0.85157 0.92504,0.92504 1.61403,0.0664 2.51835,-0.2954 2.00958,-0.80417 z m -6.12442,-1.53111 c -0.50879,-0.50877 -1.82936,-0.56315 -2.93462,-0.1208 -1.22141,0.48876 -0.85862,0.85157 0.92504,0.92503 1.61403,0.0664 2.51835,-0.2954 2.00958,-0.80417 z m -6.12442,-1.5311 c -0.50879,-0.50877 -1.82936,-0.56316 -2.93462,-0.12081 -1.22141,0.48876 -0.85862,0.85157 0.92504,0.92504 1.61403,0.0665 2.51835,-0.2954 2.00958,-0.80417 z m -6.12442,-1.53111 c -0.50879,-0.50877 -1.82936,-0.56315 -2.93462,-0.1208 -1.22141,0.48876 -0.85862,0.85157 0.92504,0.92503 1.61403,0.0665 2.51835,-0.2954 2.00958,-0.80417 z m -6.12442,-1.5311 c -0.50879,-0.50877 -1.82936,-0.56316 -2.93462,-0.12081 -1.22141,0.48876 -0.85862,0.85157 0.92504,0.92504 1.61403,0.0665 2.51835,-0.2954 2.00958,-0.80417 z m -6.85808,-1.62008 c -1.05263,-0.42474 -2.77513,-0.42474 -3.82776,0 -1.05264,0.42474 -0.19139,0.77227 1.91388,0.77227 2.10527,0 2.96652,-0.34753 1.91388,-0.77227 z m -6.92187,-1.44213 c -0.50877,-0.50877 -1.82935,-0.56316 -2.93462,-0.12081 -1.22141,0.48876 -0.8586,0.85157 0.92505,0.92504 1.61403,0.0665 2.51835,-0.2954 2.00957,-0.80417 z m -6.12442,-1.53111 c -0.50877,-0.50877 -1.82935,-0.56315 -2.93462,-0.1208 -1.22141,0.48876 -0.8586,0.85157 0.92505,0.92503 1.61403,0.0665 2.51834,-0.2954 2.00957,-0.80417 z m -6.85807,-1.62007 c -1.05264,-0.42475 -2.77513,-0.42475 -3.82777,0 -1.05263,0.42474 -0.19138,0.77227 1.91389,0.77227 2.10526,0 2.96651,-0.34753 1.91388,-0.77227 z m 89.65052,-3.19652 c 3.50431,-4.96997 29.33101,-52.33149 38.3881,-70.39684 3.50107,-6.98328 6.31584,-14.80416 6.31584,-17.54868 0,-6.4327 -9.73197,-38.30298 -32.71695,-107.14166 l -18.57507,-55.63126 -6.88997,-1.17002 c -12.96834,-2.20222 -80.37152,-11.58981 -89.56964,-12.47482 l -9.18663,-0.88392 -34.22442,49.04478 -34.22442,49.04478 2.59475,7.98051 c 6.64042,20.42356 59.60761,137.02262 62.4209,137.40996 0.20404,0.028 23.45239,5.83675 51.66299,12.90816 28.21061,7.0714 53.48435,12.90489 56.16386,12.96332 3.64386,0.0795 5.62013,-0.95506 7.84066,-4.10431 z m -96.57239,1.75438 c -0.50878,-0.50877 -1.82936,-0.56315 -2.93462,-0.1208 -1.22141,0.48876 -0.85861,0.85157 0.92504,0.92503 1.61404,0.0665 2.51835,-0.2954 2.00958,-0.80417 z m -6.85808,-1.62007 c -1.05263,-0.42475 -2.77513,-0.42475 -3.82776,0 -1.05263,0.42474 -0.19139,0.77227 1.91388,0.77227 2.10527,0 2.96652,-0.34753 1.91388,-0.77227 z m 543.44211,-19.6559 c 14.89642,-21.08915 35.04923,-60.28864 43.92898,-85.44688 5.69584,-16.13754 15.53015,-55.43206 15.42619,-61.63774 -0.0652,-3.89113 -0.79708,-3.08822 -5.44976,5.97858 -12.69414,24.7375 -61.84356,143.18321 -61.84356,149.0375 0,3.06368 0.58346,2.48071 7.93815,-7.93146 z M 149.98113,589.89012 C 131.86843,544.51521 93.986641,461.62814 91.361704,461.62814 c -2.989499,0 9.444326,46.28143 18.946666,70.52366 12.78402,32.6144 45.53672,88.16298 47.86482,81.17871 0.29153,-0.87461 -3.39489,-11.42279 -8.19206,-23.44039 z m 366.19373,-61.88036 12.44131,-0.96864 4.12135,-13.18489 c 25.97742,-83.10607 39.08152,-127.34157 41.22118,-139.15019 0.67538,-3.72743 0.16566,-5.74974 -1.99338,-7.90878 -7.16624,-7.16625 -92.96662,-70.33005 -116.73752,-85.93886 l -13.84537,-9.09136 -5.80927,3.26499 c -11.08598,6.23068 -94.17082,66.86006 -116.88628,85.29525 -10.41165,8.4498 -10.49314,8.5746 -9.61147,14.71995 2.00985,14.00902 44.88372,149.52983 48.09856,152.03565 1.88531,1.46951 19.18456,1.91175 74.50749,1.90471 39.62864,-0.005 77.65066,-0.44508 84.4934,-0.97783 z M 112.93834,428.70184 c 14.20399,-18.89292 48.12927,-67.71519 52.9185,-76.15565 l 3.92034,-6.90914 -9.42543,-64.7505 c -6.13617,-42.154 -10.11297,-65.18674 -11.39556,-66.00052 -1.08356,-0.68749 -4.27742,-1.26056 -7.09746,-1.27345 -7.57133,-0.0346 -12.20124,5.94651 -22.81185,29.46938 -16.04908,35.57949 -26.959946,74.55218 -30.964711,110.60328 -2.387174,21.48949 -3.758066,58.44793 -2.483308,66.94861 1.217624,8.11971 10.964909,22.87484 14.688509,22.23501 1.26317,-0.21703 6.9561,-6.5922 12.65097,-14.16702 z m 686.13624,-2.9535 c 1.22275,-4.87184 -1.56583,-68.74138 -3.63973,-83.36432 -5.1579,-36.36785 -25.33075,-97.59188 -38.92366,-118.13214 -3.34503,-5.0547 -4.68391,-5.8054 -11.97955,-6.71693 -12.14572,-1.51751 -12.71687,-1.00082 -14.76317,13.35555 -1.7657,12.38781 -11.69974,89.19264 -13.14758,101.65038 -0.63555,5.46851 0.0447,7.59006 4.60888,14.3723 8.09952,12.03583 52.30636,66.79297 62.13486,76.96384 7.48085,7.74143 9.05808,8.72725 11.70038,7.31314 1.67968,-0.89894 3.484,-3.34776 4.00957,-5.44182 z M 643.23646,345.34905 c 25.35806,-5.05303 47.85657,-9.85307 49.99671,-10.66675 4.80575,-1.82714 4.65575,-1.15797 14.78966,-65.97338 4.27907,-27.3685 8.0276,-51.31681 8.33007,-53.21847 0.41892,-2.63384 -1.8958,-5.76473 -9.71615,-13.14205 C 686.70023,183.5413 577.62995,93.79642 571.08561,90.814618 567.94787,89.384971 560.17165,92.643225 469.70385,133.29379 l -20.24975,9.09897 -0.0374,55.98355 -0.0374,55.98354 6.50719,4.80393 c 3.57896,2.64215 35.3474,25.50153 70.59653,50.7986 47.92058,34.39095 64.91664,45.81549 67.36862,45.28434 1.80361,-0.39069 24.02678,-4.84464 49.38482,-9.89767 z m 97.05278,-146.86847 c 0,-1.52253 -19.63045,-25.52849 -31.53837,-38.56808 -33.12221,-36.26997 -66.29809,-61.642902 -110.24729,-84.317184 -18.77493,-9.686365 -21.34357,-10.637152 -21.843,-8.085224 -0.74248,3.793738 12.05033,15.783619 59.62335,55.881178 65.34747,55.07898 91.80851,76.21242 96.10951,76.75907 4.51622,0.57401 7.8958,-0.14071 7.8958,-1.66976 z M 168.78373,184.24267 c 26.75065,-20.29731 95.30355,-76.0602 122.50899,-99.65234 23.10129,-20.033094 21.30036,-21.465748 -8.31694,-6.616174 -37.28706,18.695055 -65.3714,38.506724 -91.63215,64.640484 -15.08957,15.0166 -45.12311,50.23049 -45.12311,52.90619 0,3.77742 7.9736,-0.20817 22.56321,-11.27816 z M 488.54826,108.2405 c 58.86148,-26.716143 72.6017,-33.570634 72.6017,-36.218323 0,-1.35039 -1.01022,-4.873066 -2.24495,-7.828166 -2.99207,-7.161064 -9.2956,-9.77891 -39.99217,-16.608722 l -24.6294,-5.479903 h -47.37269 c -53.80862,0 -63.981,0.946975 -95.30017,8.871744 l -22.42302,5.673753 -3.43195,7.181484 c -1.88758,3.949817 -3.03476,8.216538 -2.54932,9.481602 0.48545,1.265064 6.85281,5.360289 14.14969,9.1005 12.87514,6.599491 78.21561,36.279231 95.13989,43.215581 10.01029,4.10268 5.87108,5.38683 56.05239,-17.38955 z"
     id="path5945" />
  <path
     style="opacity:1;fill:#000000;fill-opacity:1;stroke:#000000;stroke-width:2.63962;stroke-linejoin:miter;stroke-dasharray:none;stroke-opacity:1;paint-order:markers stroke fill"
     d="M 404.97726,772.36163 C 340.02378,768.10253 258.3454,733.84412 203.56681,687.88394 136.14988,631.31998 91.147693,555.31578 73.680032,468.51811 c -6.857743,-34.07645 -7.2489,-95.3717 -0.8696,-136.26834 8.126057,-52.0948 39.932228,-120.16029 78.518178,-168.02958 14.20591,-17.62369 46.75327,-49.56958 63.02608,-61.86138 39.06973,-29.511619 97.44217,-57.620756 141.47362,-68.126351 26.8541,-6.4072 37.79567,-7.671064 73.64663,-8.50695 38.95348,-0.908223 63.57625,0.68403 86.8451,5.615913 72.98041,15.468367 136.99671,50.007524 189.4435,102.211738 31.37199,31.22689 50.24946,57.30977 70.86988,97.92045 15.70982,30.93957 22.07055,47.10525 28.56798,72.60516 9.81252,38.51025 10.74986,46.72134 10.73165,94.00852 -0.0138,37.70341 -0.4348,45.23934 -3.48671,62.51979 -8.82917,49.99234 -27.31044,98.83461 -53.03638,140.16456 -22.56734,36.25546 -67.98707,82.3942 -106.3937,108.07794 -56.65125,37.8845 -114.31075,59.67206 -168.39763,63.63176 -21.94315,1.60645 -54.05266,1.55819 -79.64137,-0.11974 z m 93.14699,-19.85128 c 14.65615,-1.54379 38.26435,-6.84943 40.60245,-9.12486 2.18477,-2.12619 -18.23477,-2.97702 -84.75408,-3.53151 -73.08828,-0.60924 -85.41119,-0.0589 -87.88105,3.92384 -2.16023,3.48358 0.1401,5.0356 9.66522,6.52091 22.09709,3.44572 97.68233,4.81182 122.36746,2.21162 z m 92.73048,-28.77865 c 41.11153,-19.63854 80.2753,-47.19507 107.7119,-75.78854 7.51751,-7.8345 9.56941,-10.98623 9.56941,-14.69875 v -4.72583 h -12.86797 c -13.16111,0 -55.74354,3.25743 -85.8883,6.5702 l -16.84216,1.85088 -5.66795,10.71773 c -7.4285,14.04686 -33.37522,74.44355 -33.37522,77.68819 0,1.38665 1.55024,3.6415 3.44498,5.01079 5.64574,4.08004 15.55995,2.1435 33.91531,-6.62467 z m -54.40654,-9.08847 c 2.93744,-5.77525 25.65239,-59.12199 32.40009,-76.09257 l 3.62093,-9.10674 -10.32199,-19.98426 c -5.67709,-10.99134 -15.30925,-28.94122 -21.40477,-39.88862 l -11.08277,-19.90436 -86.37747,0.20852 c -85.29005,0.20592 -86.40968,0.24831 -88.93579,3.36792 -5.51596,6.81192 -42.76656,82.7601 -42.76656,87.19436 0,3.34896 3.43547,9.07313 12.99239,21.64782 20.11033,26.46056 42.2592,54.26951 44.90926,56.3857 1.8492,1.47665 20.86067,1.91388 83.22153,1.91388 h 80.82479 z M 292.97508,625.65894 c 4.15459,-4.49384 31.33063,-53.68195 40.27876,-72.90377 3.0031,-6.45108 4.8905,-12.82724 4.75881,-16.0766 -0.4709,-11.61949 -48.18754,-158.51454 -52.17548,-160.62151 -2.36419,-1.24909 -65.30216,-10.61018 -91.88031,-13.66583 l -11.21121,-1.28895 -6.619,9.30587 c -3.64045,5.11823 -19.05203,27.12027 -34.24797,48.89341 l -27.62896,39.58753 3.9256,10.93893 c 7.216,20.10783 54.51336,125.09633 59.13815,131.27215 1.18902,1.58778 19.44793,6.76318 52.35227,14.83901 50.50834,12.3964 55.51401,13.59991 57.95047,13.9329 0.71477,0.0977 3.12626,-1.79822 5.35887,-4.21314 z M 151.67993,595.97231 C 140.48493,566.0826 94.87491,464.69035 92.62441,464.69035 c -3.347346,0 10.97919,49.87025 21.37071,74.39082 11.69511,27.59662 40.97214,77.74271 42.57735,72.92706 0.28842,-0.86524 -1.91323,-8.08142 -4.89254,-16.03592 z m 586.718,3.0725 c 12.14684,-18.81929 24.71494,-42.63342 33.24405,-62.99113 7.52551,-17.96223 18.56856,-56.01925 19.96528,-68.80517 l 0.86484,-7.91703 -4.70532,8.85293 c -9.5656,17.99743 -59.72638,138.33068 -59.72638,143.28068 0,0.95835 0.27366,1.74244 0.60813,1.74244 0.33447,0 4.72169,-6.37322 9.7494,-14.16272 z m -212.3802,-72.45943 c 3.85053,-1.0792 46.25971,-139.92513 46.48796,-152.19972 l 0.12754,-6.85946 -19.90436,-15.12199 c -28.27482,-21.48131 -72.06098,-53.48756 -92.3032,-67.47062 -13.62607,-9.41272 -18.05737,-11.74082 -20.96064,-11.01213 -5.68879,1.42778 -98.84829,68.79631 -121.37799,87.77478 -6.73126,5.67027 -8.0383,7.60007 -8.0383,11.86839 0,7.48905 33.5274,117.86054 44.19225,145.47995 l 2.95607,7.65552 18.14845,0.93157 c 19.12774,0.98184 146.59416,0.0968 150.67221,-1.04629 z M 106.17051,436.40579 c 8.51485,-9.69787 55.81306,-77.3518 61.25566,-87.61823 1.43593,-2.7086 0.44036,-12.52674 -5.09389,-50.23528 -7.5826,-51.66534 -12.55866,-81.92041 -13.65354,-83.0153 -2.0321,-2.0321 -11.81748,-0.73609 -14.80837,1.96125 -4.20072,3.78846 -17.7539,32.04513 -24.93016,51.97624 -15.737843,43.70979 -22.151494,80.53707 -22.66577,130.14723 -0.251045,24.21715 0.267122,26.61198 8.198532,37.89154 3.880404,5.51847 6.061188,5.312 11.697538,-1.10745 z m 690.82294,-7.76065 c 1.52906,-1.84241 1.73528,-9.49238 0.93901,-34.83264 -1.26254,-40.17901 -2.87608,-54.89077 -8.63296,-78.71236 -9.57895,-39.63701 -28.75262,-88.68601 -36.8985,-94.39161 -2.22033,-1.55517 -6.64355,-2.52608 -11.5083,-2.52608 -6.89619,0 -8.02105,0.43844 -8.83861,3.44499 -1.39629,5.13478 -14.73142,108.0347 -14.73142,113.67433 0,6.03834 5.49728,14.01241 34.16448,49.55724 24.36164,30.2063 38.73626,46.14703 41.61328,46.14703 1.06351,0 2.81535,-1.0624 3.89302,-2.3609 z M 641.09012,345.19958 c 24.66469,-5.08816 46.76411,-9.65766 49.10982,-10.15444 7.19382,-1.52352 7.12997,-1.26533 18.81001,-76.0554 l 7.13703,-45.70013 -7.45047,-7.66897 C 696.78882,193.36372 605.81485,117.33359 578.98244,97.214038 l -8.96188,-6.719809 -7.45077,2.646282 C 556.3759,95.340383 500.76182,119.7881 459.71426,138.35537 l -10.33496,4.67487 v 54.91692 54.91692 l 3.44499,3.1019 c 4.04126,3.63879 104.28417,75.42602 124.40227,89.08855 7.57897,5.147 14.95866,9.36675 16.3993,9.37722 1.44063,0.0107 22.79955,-4.144 47.46426,-9.23217 z m 97.65035,-147.30427 c -0.0298,-3.22678 -27.00375,-34.60175 -45.76519,-53.23214 C 673.26929,125.09484 656.83066,111.78609 633.87745,96.81748 620.08431,87.822469 581.55331,66.603065 579.013,66.603065 c -3.33371,0 0.35557,5.399756 10.07963,14.752895 18.73386,18.01928 106.97689,92.21179 130.2765,109.5332 11.38372,8.46288 19.41159,11.36637 19.37134,7.00615 z M 156.1727,192.28767 c 12.94764,-7.49335 133.0676,-104.902264 145.35865,-117.875723 7.3091,-7.714909 1.36025,-6.024087 -22.85304,6.49544 -48.23276,24.938843 -78.32149,49.398623 -116.12946,94.404133 -19.28012,22.95049 -19.99699,24.85912 -6.37615,16.97615 z m 308.43044,-73.85633 c 30.37593,-13.46392 88.96599,-40.80729 92.74359,-43.282475 3.13434,-2.053702 3.42485,-2.995397 2.22001,-7.196429 -2.93981,-10.250508 -7.98536,-12.511957 -47.4859,-21.283529 l -22.12726,-4.913622 -48.79147,0.954476 c -51.45161,1.006513 -61.276,1.923914 -85.94576,8.025599 -28.52867,7.056127 -26.28672,6.015059 -29.16094,13.541089 -1.42925,3.742456 -2.23429,7.753958 -1.78897,8.914445 1.15082,2.998998 18.83688,11.860824 65.39977,32.769416 22.31585,10.0207 42.29677,19.02469 44.40204,20.00886 5.48384,2.56357 10.58765,1.30365 30.53489,-7.53783 z"
     id="path5953" />
  <path
     style="opacity:1;fill:#000000;fill-opacity:1;stroke:#000000;stroke-width:2.63962;stroke-linejoin:miter;stroke-dasharray:none;stroke-opacity:1;paint-order:markers stroke fill"
     d="M 719.30699,187.80446 C 688.13558,164.69226 581.32399,73.478562 583.21571,71.586835 c 1.08757,-1.08757 35.91224,18.559549 53.54532,30.208795 26.61238,17.58139 48.92349,37.43405 76.59727,68.15702 25.87592,28.72701 27.60192,33.90669 5.94869,17.85181 z"
     id="path5961" />
  <path
     style="opacity:1;fill:#000000;fill-opacity:1;stroke:#000000;stroke-width:2.63962;stroke-linejoin:miter;stroke-dasharray:none;stroke-opacity:1;paint-order:markers stroke fill"
     d="m 724.1922,191.6005 c -4.1993,-2.83056 -9.85015,-7.21839 -12.55744,-9.75073 -2.7073,-2.53233 -5.21249,-4.31412 -5.56709,-3.95951 -0.35461,0.3546 -2.00981,-1.09068 -3.67824,-3.21174 -1.66842,-2.12106 -3.39092,-3.49906 -3.82776,-3.06221 -0.43684,0.43684 -2.15934,-0.94115 -3.82776,-3.06221 -1.66843,-2.12106 -3.38374,-3.50624 -3.8118,-3.07818 -0.42806,0.42806 -2.58652,-1.37066 -4.79658,-3.99716 -2.21005,-2.6265 -4.01828,-4.34356 -4.01828,-3.8157 0,0.52786 -5.85647,-3.97194 -13.01439,-9.99957 -7.15791,-6.02763 -13.01439,-11.6148 -13.01439,-12.41593 0,-0.80113 -0.54553,-1.11945 -1.21228,-0.70737 -0.66675,0.41208 -5.62774,-3.33675 -11.02442,-8.33072 -5.39668,-4.99397 -10.08073,-9.07994 -10.40899,-9.07994 -0.89355,0 -45.03197,-38.918001 -48.40522,-42.680147 -4.6595,-5.196688 -1.25535,-3.908056 18.26361,6.91364 21.42001,11.875683 45.56888,27.492387 52.4441,33.914807 2.65598,2.48105 5.09103,4.24902 5.41123,3.92882 0.3202,-0.32019 6.63997,5.18302 14.04393,12.22937 7.40396,7.04635 13.68579,12.73872 13.95962,12.6497 0.76138,-0.24752 27.93214,29.21271 36.99209,40.10914 11.46911,13.79392 10.87498,16.05037 -1.94994,7.40564 z"
     id="path5969" />
  <path
     style="opacity:1;fill:#000000;fill-opacity:1;stroke:#000000;stroke-width:2.63962;stroke-linejoin:miter;stroke-dasharray:none;stroke-opacity:1;paint-order:markers stroke fill"
     d="M 396.85476,772.26113 C 336.01968,766.40135 261.01738,734.42588 207.46472,691.51912 148.15028,643.99602 103.93768,577.37785 81.312481,501.43687 70.416516,464.86481 67.356587,437.16908 68.571647,386.11829 c 1.477533,-62.07858 9.180387,-93.63583 36.320073,-148.79702 20.42129,-41.50611 42.7491,-72.80271 74.27844,-104.11514 31.67179,-31.45389 53.88923,-47.074161 98.85533,-69.501577 33.55002,-16.733496 61.13624,-26.674436 92.50191,-33.333888 19.42652,-4.124574 21.13572,-4.227418 71.19638,-4.283954 57.04656,-0.06443 64.89648,0.855483 103.81698,12.166021 77.88345,22.633406 147.89143,71.049288 196.90786,136.176868 25.58146,33.98978 51.04731,85.00947 61.5403,123.29314 11.24351,41.02203 12.05523,47.80288 12.01453,100.36455 -0.03,38.84146 -0.5301,50.10672 -2.75234,62.00975 -11.23193,60.16146 -34.92692,117.24263 -65.98952,158.9685 -15.93312,21.4027 -59.66853,65.26898 -80.24752,80.48764 -53.96986,39.91204 -117.94904,66.50947 -175.08627,72.7869 -17.12853,1.88183 -75.21741,1.8336 -95.07304,-0.079 z m 124.86925,-24.24266 c 8.21055,-2.00764 14.92827,-4.11481 14.92827,-4.68257 0,-2.63599 -149.04977,-4.26938 -163.04618,-1.7868 -7.99597,1.41827 -9.17618,5.65213 -2.01561,7.23072 12.11278,2.67035 31.36524,3.41597 81.61657,3.16092 50.76583,-0.25766 54.37504,-0.46427 68.51695,-3.92227 z m 74.92401,-28.02078 c 37.39713,-18.63405 66.2567,-38.76594 93.41049,-65.16142 11.02765,-10.71968 16.69823,-17.39888 17.37063,-20.46034 0.54907,-2.49987 0.64602,-4.89748 0.21547,-5.32803 -1.56191,-1.56193 -89.94845,4.86342 -109.93183,7.99159 -5.36795,0.84028 -5.8105,1.43126 -14.04617,18.75715 -9.14871,19.24666 -20.68711,45.85056 -26.41928,60.91444 -3.33574,8.76615 -3.39565,9.50343 -0.97418,11.9884 2.01143,2.06416 4.49866,2.51653 11.28387,2.05223 6.96394,-0.47652 12.77893,-2.62613 29.091,-10.75402 z m -58.18251,-11.86165 c 3.10255,-6.31581 11.88505,-26.50076 19.51667,-44.85547 l 13.87567,-33.37216 -3.1837,-6.43657 c -1.75103,-3.54009 -11.22254,-21.45223 -21.04778,-39.80473 l -17.86406,-33.36818 -86.26092,0.44943 -86.26091,0.44942 -3.12699,3.82776 c -3.20748,3.92629 -40.02354,77.78228 -41.69143,83.6364 -1.21198,4.25387 7.89497,17.77273 35.45541,52.63194 l 21.18417,26.79434 19.87169,0.84416 c 10.92943,0.46429 47.77608,0.80879 81.88144,0.76555 l 62.00975,-0.0786 z M 293.7039,623.54249 c 5.03576,-6.74455 26.64862,-45.84522 35.74761,-64.67239 9.30428,-19.25191 9.30084,-21.96616 -0.0671,-52.83992 -8.67841,-28.60143 -34.68227,-107.39141 -39.65037,-120.13796 -3.31502,-8.50535 -3.97554,-9.21952 -9.61296,-10.39403 -9.70265,-2.02146 -89.88493,-13.38931 -94.09188,-13.33987 -3.7646,0.0442 -14.61744,14.70006 -62.61092,84.55067 l -8.25669,12.01694 1.92258,6.4272 c 2.4509,8.19343 29.31928,69.75199 46.71324,107.02546 l 13.36337,28.63633 9.4103,3.09173 c 13.75938,4.52059 94.44085,24.46649 99.2848,24.54498 2.92459,0.0473 5.21866,-1.38763 7.84796,-4.90914 z M 150.27858,593.93452 C 138.61211,563.42546 96.190056,469.28367 94.108577,469.28367 c -3.407679,0 13.897133,55.85722 24.191493,78.08635 11.59518,25.03805 35.44032,65.32335 36.62456,61.87555 0.3146,-0.91592 -1.77613,-7.8059 -4.64605,-15.31105 z m 594.8275,-7.11849 c 19.82074,-33.3271 32.57091,-64.05358 42.02057,-101.26482 8.28833,-32.63807 1.74852,-21.41859 -26.11945,44.80963 -19.96775,47.45336 -31.4497,76.2291 -31.387,78.66122 0.0727,2.82294 3.65719,-2.31696 15.48588,-22.20603 z m -229.97371,-60.69882 11.39885,-0.94821 3.56545,-9.18663 c 10.92199,-28.14122 41.77103,-133.83419 41.77103,-143.1131 0,-5.40059 -0.67432,-6.00351 -37.1293,-33.19776 -38.32112,-28.58631 -75.84324,-55.54562 -85.53981,-61.45957 -3.04678,-1.85823 -6.91117,-3.3786 -8.58754,-3.3786 -6.97054,0 -121.90225,84.23631 -128.34253,94.06542 -2.28464,3.4868 -2.14237,4.84942 2.19811,21.05164 6.08322,22.70749 30.66693,102.12399 37.35488,120.6731 l 5.24443,14.5455 5.96517,0.93105 c 7.84616,1.22465 137.40982,1.23926 152.10126,0.0171 z m -409.5303,-90.13508 c 4.70984,-5.07507 30.61387,-41.21391 48.83823,-68.13446 8.6772,-12.81773 13.21428,-20.96773 13.21157,-23.73212 -0.009,-8.93118 -17.56994,-124.93238 -19.34908,-127.81109 -0.40254,-0.65131 -2.84911,-1.18422 -5.43683,-1.18422 -7.09346,0 -13.32869,7.78858 -22.2253,27.76217 -22.97105,51.57181 -32.713172,96.51003 -33.148859,152.90822 -0.193161,25.00411 0.117007,28.95381 2.645249,33.68431 6.273089,11.73737 9.392969,13.05013 15.46502,6.50719 z M 797.35793,423.6291 c 1.25725,-9.72919 -1.83561,-72.36149 -4.28559,-86.78601 -6.65781,-39.19842 -29.82721,-105.44305 -40.02677,-114.44226 -3.38032,-2.9825 -15.58312,-5.03542 -18.41355,-3.09776 -2.27076,1.55452 -3.4709,9.03798 -11.09884,69.2061 -6.97726,55.03575 -7.51858,49.74394 7.05901,69.00766 13.92281,18.39846 46.95834,58.30746 54.74836,66.13945 3.98485,4.00633 8.07283,6.84438 9.22302,6.403 1.13622,-0.43601 2.39369,-3.32958 2.79436,-6.43018 z m -151.9972,-80.01721 c 25.68429,-5.16178 47.4834,-10.023 48.44248,-10.80267 2.77335,-2.25459 4.84651,-12.53423 13.5359,-67.11722 4.96365,-31.17947 7.66537,-52.24375 6.88728,-53.69761 -2.51637,-4.7019 -72.22801,-64.04481 -118.35816,-100.75388 -28.72978,-22.862344 -24.27361,-21.310496 -41.06424,-14.300444 -23.88083,9.970194 -98.30064,43.256464 -101.9797,45.613174 l -3.44499,2.20677 v 53.49374 c 0,52.39577 0.0661,53.55529 3.21999,56.4936 7.05587,6.57354 118.0479,85.70821 131.97183,94.09277 4.84456,2.91723 9.99686,5.04594 11.44959,4.73046 1.45273,-0.31549 23.65574,-4.79689 49.34002,-9.95869 z M 737.83875,198.527 c 0.43585,-0.70521 -1.07374,-3.32684 -3.35463,-5.82587 -2.28089,-2.49902 -3.28581,-3.41802 -2.23318,-2.04223 1.05264,1.37579 1.91388,3.30844 1.91388,4.29476 0,0.98633 -0.86124,1.80387 -1.91388,1.81677 -1.27592,0.0156 -1.14833,0.51818 0.38278,1.50766 2.84476,1.83843 4.1831,1.90243 5.20503,0.24891 z m -11.30903,-4.53975 c -2.09403,-1.42952 -12.25674,-9.32056 -22.5838,-17.53565 -10.32705,-8.21508 -18.77646,-14.62216 -18.77646,-14.23796 0,1.71741 42.26594,34.62641 44.249,34.45304 0.50523,-0.0443 -0.79471,-1.24992 -2.88874,-2.67943 z m -571.12257,-2.04717 c 13.71889,-8.35683 86.90644,-67.18539 142.92542,-114.884255 9.09704,-7.745916 2.29569,-6.545991 -16.32426,2.880003 -36.12298,18.286563 -60.05148,35.039342 -85.80974,60.076972 -13.51775,13.13957 -35.77735,38.13538 -46.77405,52.52365 -2.74445,3.59088 -0.52872,3.37002 5.98263,-0.59637 z m 567.79974,-13.88021 c -13.44761,-16.1162 -43.74696,-46.30086 -57.91501,-57.69576 -14.8608,-11.95207 -34.51471,-25.448806 -48.25659,-33.138794 -12.06607,-6.752204 -6.04564,-2.130966 9.95219,7.639224 29.56589,18.05648 58.40664,42.76209 86.17149,73.81635 16.24586,18.17059 21.3916,22.97376 10.04792,9.37898 z m -39.56853,-17.05655 c 0,-0.29054 -1.55025,-1.84078 -3.44499,-3.44498 l -3.44498,-2.91674 2.91674,3.44499 c 2.74101,3.23743 3.97323,4.142 3.97323,2.91673 z m -9.18663,-7.65552 c 0,-0.29054 -1.55024,-1.84078 -3.44499,-3.44499 l -3.44498,-2.91674 2.91674,3.44499 c 2.74101,3.23744 3.97323,4.14201 3.97323,2.91674 z m -11.62876,-10.35818 c -1.60421,-1.77699 -5.67273,-5.2941 -9.04116,-7.8158 -4.34285,-3.25118 -3.67477,-2.3255 2.29666,3.18217 8.82751,8.14193 11.68219,10.10318 6.7445,4.63363 z m -15.93113,-12.55924 c 0,-0.26351 -2.23924,-2.50275 -4.97609,-4.97609 l -4.97609,-4.497 4.49699,4.97609 c 4.19183,4.63842 5.45519,5.67987 5.45519,4.497 z M 452.0013,123.02955 c 11.21891,-4.16104 98.72159,-44.543798 103.96893,-47.981988 3.17108,-2.077764 3.72509,-3.347027 2.90451,-6.654324 -2.40446,-9.691086 -7.3207,-11.933166 -45.78863,-20.882188 l -22.80063,-5.304244 -51.45796,1.403103 c -53.39855,1.456017 -63.81075,2.570118 -92.76269,9.925564 -8.40176,2.134529 -15.4463,3.880962 -15.65451,3.880962 -1.25701,0 -5.05052,9.669698 -5.05052,12.873816 0,2.959998 1.66558,4.817376 7.27275,8.110195 13.10528,7.696105 102.09996,47.702754 106.35436,47.810514 2.28421,0.0579 8.14069,-1.37378 13.01439,-3.18141 z m 179.47467,-6.32423 C 610.60836,97.858225 586.92411,77.351664 589.4754,80.339937 c 3.53758,4.143459 45.55174,41.300813 46.69871,41.300363 0.42105,-1.7e-4 -1.69312,-2.22091 -4.69814,-4.93498 z M 605.55201,81.187881 c 0,-0.399429 -2.067,-1.795116 -4.59332,-3.101529 -5.7583,-2.977736 -6.10672,-1.684388 -0.38277,1.420904 4.81157,2.610324 4.97609,2.665886 4.97609,1.680625 z m -22.20103,-8.460396 c -0.52045,-0.842108 -0.0444,-1.541656 1.05797,-1.554551 2.78635,-0.0326 -1.85321,-2.983852 -4.74026,-3.015318 -1.63647,-0.01784 -1.48811,0.709234 0.62008,3.038764 2.93326,3.241211 4.64945,4.099307 3.06221,1.531105 z"
     id="path5977" />
  <rect
     style="display:inline;opacity:1;fill:#4caf50;fill-opacity:1;stroke:#000000;stroke-width:1;stroke-linejoin:miter;stroke-dasharray:none;stroke-opacity:1;marker-start:url(#CapRibbon1);marker-end:url(#CapRibbon1);paint-order:markers stroke fill;filter:url(#filter4345)"
     id="rect396"
     width="816.53125"
     height="195.93735"
     x="41.581783"
     y="24.704313"
     inkscape:transform-center-x="-2.8185058"
     ry="0" />
  <text
     xml:space="preserve"
     style="font-size:85.3333px;white-space:pre;inline-size:680.177;display:inline;opacity:0.5;fill:#ececec;fill-opacity:1;stroke-width:4.40865487;stroke-dasharray:none;stroke:#000000;stroke-opacity:1;stroke-linecap:round;stroke-linejoin:round;paint-order:stroke fill markers"
     x="114.83287"
     y="122.4884"
     id="text2011"
     transform="matrix(1.5197849,0,0,1.9553875,-10.870609,-57.063852)"
     inkscape:label="text2011"><tspan
       x="114.83287"
       y="122.4884"
       id="tspan10238">FurboDB</tspan></text>
</svg>
